<svg width="73" height="32" viewBox="0 0 73 32" xmlns="http://www.w3.org/2000/svg">
<path d="M26.25 21.25V22.75H15.75V21.25H26.25ZM21.75 9.25L21.7497 17.077L25.4997 13.7433V15.7502L21 19.75L16.4997 15.7502V13.7433L20.2497 17.077L20.25 9.25H21.75Z" fill="#fff"/>
<path d="M38.2178 11.0059C39.5075 11.0059 40.4486 11.2702 41.041 11.7988C41.6335 12.3275 41.9297 13.068 41.9297 14.0205C41.9297 14.4535 41.8613 14.8659 41.7246 15.2578C41.5924 15.6452 41.3737 15.9893 41.0684 16.29C40.763 16.5863 40.3597 16.821 39.8584 16.9941C39.3617 17.1673 38.7487 17.2539 38.0195 17.2539H36.9531V21H35.3125V11.0059H38.2178ZM38.1084 12.3662H36.9531V15.8867H37.8486C38.3636 15.8867 38.8011 15.8275 39.1611 15.709C39.5212 15.5859 39.7946 15.3923 39.9814 15.1279C40.1683 14.8636 40.2617 14.515 40.2617 14.082C40.2617 13.5033 40.0863 13.0726 39.7354 12.79C39.389 12.5075 38.8467 12.3662 38.1084 12.3662ZM52.04 15.9072C52.04 17.0329 51.8304 17.974 51.4111 18.7305C50.9919 19.4824 50.3835 20.0498 49.5859 20.4326C48.7884 20.8109 47.8268 21 46.7012 21H43.9258V11.0059H47.002C48.0365 11.0059 48.9297 11.1927 49.6816 11.5664C50.4336 11.9355 51.0146 12.4847 51.4248 13.2139C51.835 13.9385 52.04 14.8363 52.04 15.9072ZM50.3311 15.9551C50.3311 15.1348 50.2012 14.4603 49.9414 13.9316C49.6862 13.403 49.3079 13.0111 48.8066 12.7559C48.3099 12.4961 47.6969 12.3662 46.9678 12.3662H45.5664V19.626H46.7285C47.9362 19.626 48.8385 19.3184 49.4355 18.7031C50.0326 18.0879 50.3311 17.1719 50.3311 15.9551ZM55.8203 21H54.1934V11.0059H59.8398V12.3867H55.8203V15.5039H59.5801V16.8779H55.8203V21Z" fill="#fff"/>
</svg>
