<svg width="135" height="131" viewBox="0 0 135 131" fill="none" xmlns="http://www.w3.org/2000/svg">
<path fill-rule="evenodd" clip-rule="evenodd" d="M67.4329 130.938C62.2065 130.938 57.1218 130.348 52.2497 129.235C52.3205 128.519 52.3381 128.252 52.3381 128.252C52.3381 128.252 52.2851 128.727 52.2319 129.231C35.7021 125.453 21.5285 115.641 12.2803 102.293C12.989 102.142 12.8827 101.62 12.4574 101.121V100.954L12.3335 100.978C11.8906 100.509 11.2174 100.092 10.8099 100.072C4.50269 90.1119 0.853027 78.3627 0.853027 65.7812C0.853027 60.2604 1.56153 54.899 2.89029 49.7787C2.92573 49.8047 2.97902 49.8186 3.03217 49.8186C3.31564 49.8186 3.59901 49.4094 3.59901 48.1783C3.49271 48.1783 3.40428 48.1852 3.3157 48.1956C4.69761 43.377 6.61098 38.7856 9.02048 34.4871C9.26851 34.8929 9.97719 35.335 10.3492 35.335C10.6859 35.335 10.7567 34.9605 9.88859 33.8369C9.67598 33.8369 9.49875 33.8542 9.37473 33.8837C20.7844 14.0336 42.5053 0.625 67.4329 0.625C104.195 0.625 134.013 29.7968 134.013 65.7812C134.013 91.5476 118.723 113.82 96.5418 124.392C96.5064 123.293 96.276 122.909 96.028 122.909C95.7445 122.909 95.4256 123.41 95.3193 123.913C95.2484 124.298 95.3016 124.685 95.5851 124.843C87.0278 128.753 77.4961 130.938 67.4329 130.938ZM80.3663 127.449C80.136 127.596 80.0651 127.645 80.0828 127.645C80.1005 127.645 80.4018 127.449 80.3663 127.449ZM73.439 124.366C72.7303 124.48 72.4467 125.519 72.6593 125.519C72.7833 125.519 73.0315 125.231 73.439 124.366ZM59.2123 124.283C59.1769 124.283 59.0706 124.472 58.9997 124.661C58.9288 124.85 58.9111 125.037 59.0352 125.037C59.23 124.472 59.2654 124.283 59.2123 124.283ZM66.2458 118.011C66.1395 118.439 66.1042 118.583 66.1042 118.583C66.1042 118.583 66.2458 118.027 66.2458 118.011ZM109.156 110.517C109.032 110.517 109.138 111.044 109.705 111.823C109.493 110.897 109.245 110.517 109.156 110.517ZM60.5233 107.607C60.4879 107.607 60.5589 108.055 60.8955 109.343C61.1081 109.785 61.2144 109.96 61.2675 109.96C61.3384 109.96 61.1789 109.371 60.984 108.783C60.8068 108.197 60.5765 107.607 60.5233 107.607ZM99.8549 108.377C99.2525 108.377 99.0753 108.736 99.1107 109.093C99.1284 109.449 99.3588 109.804 99.5891 109.804C99.8017 109.804 100.014 109.452 100.014 108.388C99.9611 108.381 99.908 108.377 99.8549 108.377ZM57.3521 108.743C57.1573 108.743 56.5726 109.731 57.1041 109.792C57.4407 109.005 57.4407 108.743 57.3521 108.743ZM108.323 107.812C108.129 108.011 108.306 108.077 108.554 108.077C109.032 108.077 109.758 107.812 108.323 107.812ZM35.9323 105.698C35.6134 105.698 35.1883 106.081 34.9225 106.459C34.6391 106.841 34.5327 107.221 34.8516 107.221C35.0819 107.221 35.5425 107.018 36.3397 106.463C36.3397 105.903 36.1626 105.698 35.9323 105.698ZM62.0824 104.788C61.9584 104.788 61.1967 106.3 61.5333 106.336C62.0294 105.175 62.1533 104.788 62.0824 104.788ZM25.2667 105.116C23.619 105.116 24.1861 106.284 24.7353 106.284C25.0011 106.284 25.2844 105.993 25.2667 105.116ZM23.1585 104.5C22.7687 104.5 22.379 104.878 22.2727 105.256C22.1664 105.632 22.3434 106.01 23.0344 106.01C23.3001 106.01 23.6369 105.957 24.0798 105.828C23.9026 104.836 23.5306 104.5 23.1585 104.5ZM18.7648 105.015C18.3041 105.119 17.4181 105.733 17.5244 105.733C17.5776 105.733 17.9143 105.553 18.7648 105.015ZM76.9114 103.987C76.4331 103.987 75.1398 104.67 75.3878 105.501C77.1595 104.405 77.2835 103.987 76.9114 103.987ZM98.03 102.137C97.9591 102.137 97.8528 102.603 97.7287 103.933C97.8173 104.469 97.8882 104.679 97.9591 104.679C98.0477 104.679 98.1185 104.042 98.1185 103.408C98.1362 102.773 98.1009 102.137 98.03 102.137ZM103.026 104.342C102.778 104.342 102.424 104.426 102.158 104.509C101.874 104.592 101.697 104.675 101.786 104.675C101.875 104.675 102.247 104.592 103.062 104.344C103.062 104.344 103.044 104.342 103.026 104.342ZM29.4126 102.256C29.3772 102.256 29.1468 102.822 28.9342 103.389C28.7039 103.956 28.4913 104.523 28.509 104.523C28.5267 104.523 28.7571 103.959 29.4126 102.269V102.256ZM99.5004 101.495C99.4296 102.057 99.7131 102.91 99.784 102.91C99.8371 102.912 99.8016 102.546 99.5004 101.495ZM102.955 101.299C102.938 101.299 102.955 101.58 102.991 101.859C103.026 102.14 103.044 102.419 103.062 102.419V102.04C102.991 101.493 102.955 101.299 102.955 101.299ZM98.7917 100.779C98.5614 100.779 98.3312 101.01 98.2781 101.24C98.2072 101.471 98.3133 101.703 98.774 101.703C98.898 101.703 99.0222 101.689 99.1816 101.658C99.1816 100.999 99.0043 100.779 98.7917 100.779ZM28.7216 100.151C28.5445 100.151 28.1016 100.292 27.198 100.684C27.1094 100.942 27.1802 101.039 27.3574 101.039C27.6054 101.039 28.0483 100.817 28.3849 100.595C28.7215 100.373 28.9519 100.151 28.7216 100.151ZM111.477 98.4469C111.211 98.4469 110.804 98.9966 110.272 100.642C110.379 100.675 110.485 100.691 110.591 100.691C111.194 100.691 111.548 100.129 111.672 99.5688C111.814 99.007 111.725 98.4469 111.477 98.4469ZM111.69 98.4625C111.672 98.4625 111.672 98.5527 111.725 98.792C111.92 99.2099 112.009 99.359 112.026 99.359C112.062 99.359 111.991 99.1353 111.902 98.9099C111.814 98.6862 111.725 98.4625 111.69 98.4625ZM110.892 97.5557C110.822 97.5557 110.733 97.9718 110.733 99.0625C111.016 98.2371 110.981 97.5557 110.892 97.5557ZM93.4059 98.251C93.6362 98.5666 93.7957 98.6879 93.8843 98.6879C94.0438 98.6879 94.0614 98.3845 93.9905 98.0793C93.9374 97.7776 93.8135 97.4742 93.6717 97.4742C93.5654 97.4742 93.4591 97.6771 93.4059 98.251C93.4768 97.5453 93.335 97.3095 93.1579 97.3095C92.8035 97.3095 92.3606 98.2198 93.4059 98.251ZM45.712 97.3268C45.3754 97.3268 45.0035 97.6372 44.9149 98.57C44.9857 98.5718 45.0566 98.5735 45.1275 98.5735C46.0487 98.5735 46.3676 98.2614 46.3676 97.9493C46.3676 97.6372 46.0487 97.3268 45.712 97.3268ZM17.5776 96.6263C17.5954 97.3147 17.8612 97.6719 18.3573 97.71C18.3396 97.0216 18.0737 96.6558 17.5776 96.6263ZM88.2325 96.0211C88.2148 96.0211 88.4096 96.309 89.0652 97.169C89.136 97.1482 88.2502 96.0211 88.2325 96.0211ZM83.9097 96.5812C83.3782 96.5812 81.5533 96.6454 83.1301 96.6454C84.1045 96.5968 84.1755 96.5812 83.9097 96.5812ZM29.2178 94.9877C29.1114 94.9877 29.0052 95.2565 29.0052 95.527C29.0052 95.7975 29.0937 96.068 29.3771 96.068C29.3949 96.068 29.4126 96.0662 29.4126 96.0662C29.4126 95.2565 29.3241 94.9877 29.2178 94.9877ZM34.5328 92.2568C34.1785 92.2568 34.2315 92.6972 34.4441 93.1376C34.6745 93.5798 35.0643 94.0202 35.3655 94.0202C35.5958 94.0202 35.7906 93.7306 35.7906 92.9157C35.1528 92.4371 34.7631 92.2568 34.5328 92.2568ZM108.997 90.7916C108.66 90.7916 108.093 90.9893 107.225 91.4938C107.012 92.8515 107.26 93.3249 107.632 93.3249C108.075 93.3249 108.731 92.692 109.103 92.0591C109.493 91.4245 109.599 90.7916 108.997 90.7916ZM126.661 90.6442C126.501 90.6442 126.749 91.0118 127.086 91.3811C127.422 91.7487 127.865 92.1181 128.113 92.1181C128.237 92.1181 128.29 92.014 128.255 91.7557C127.28 90.9303 126.82 90.6442 126.661 90.6442ZM52.4091 91.0621C50.0173 91.0621 50.9918 91.9828 51.789 91.9828C52.1788 91.9828 52.5331 91.7522 52.4091 91.0621ZM15.3985 89.1201C14.9733 89.1201 14.5303 89.4513 14.424 89.7824C14.3177 90.1136 14.5657 90.4448 15.5402 90.4448C15.735 90.4448 15.9476 90.4327 16.1957 90.4032C16.1957 89.4426 15.806 89.1201 15.3985 89.1201ZM116.899 89.1357C113.869 89.1357 115.251 90.1622 116.261 90.1622C116.757 90.1622 117.182 89.9056 116.899 89.1357ZM124.109 87.8578C123.985 87.8578 123.79 88.1057 123.56 88.8479C123.578 88.8513 123.613 88.853 123.649 88.853C123.967 88.853 124.145 88.6051 124.216 88.3554C124.269 88.1057 124.233 87.8578 124.109 87.8578ZM39.9363 86.207C39.2808 86.2192 38.2888 87.0896 38.5014 87.0896C38.6077 87.0896 39.0328 86.8694 39.9363 86.207ZM57.5115 86.2833C57.1749 86.2833 56.9799 86.3215 57.3874 86.4411C58.5213 86.4411 58.6099 86.3891 58.3442 86.344C58.1847 86.318 57.919 86.2937 57.6709 86.2851C57.6178 86.2833 57.5647 86.2833 57.5115 86.2833ZM59.23 86.0354C58.3265 86.0354 57.7418 86.1862 57.6709 86.2851C57.919 86.2937 58.1847 86.318 58.3442 86.344C58.6985 86.3042 59.1946 86.2192 59.8678 86.0579C59.6375 86.0423 59.4426 86.0354 59.23 86.0354ZM69.9665 83.0912C69.9665 83.5836 71.809 84.4558 72.1102 84.4558C72.3051 84.4558 71.88 84.1072 69.9665 83.0912ZM41.5841 80.9012C41.4955 80.9012 41.6549 81.1786 42.3813 82.0092H42.399C42.647 82.0092 42.4876 81.7318 42.2396 81.4543C41.9916 81.1786 41.655 80.9012 41.5841 80.9012ZM89.5613 80.1903C89.5081 80.1903 89.4726 80.3793 89.4726 80.9272C89.5435 81.0364 89.5968 81.0815 89.65 81.0815C89.7385 81.0815 89.7384 80.8596 89.7207 80.6359C89.6852 80.414 89.6144 80.1903 89.5613 80.1903ZM64.8286 78.6679C64.5274 78.6679 63.9426 78.9956 62.9151 79.8938C62.9151 80.7521 63.1277 81.0677 63.4112 81.0677C63.8187 81.0677 64.3679 80.4677 64.7045 79.8678C65.0588 79.2678 65.2184 78.6679 64.8286 78.6679ZM131.586 80.0637C131.55 80.0637 131.409 80.5665 131.409 80.9272C131.586 80.2874 131.621 80.0637 131.586 80.0637ZM112.77 78.3298C112.54 78.3298 112.31 78.6419 112.31 79.5765C113.709 79.5765 113.249 78.3298 112.77 78.3298ZM25.7274 78.1529C25.4793 78.1529 25.1428 78.3974 24.9834 79.1222C26.383 78.9089 26.1703 78.1529 25.7274 78.1529ZM102.424 74.4163C102.335 74.4163 102.211 74.4215 102.07 74.4319C102.016 74.7682 102.123 74.9347 102.424 74.9347C102.619 74.9347 102.884 74.8567 103.256 74.7006C102.229 74.7006 103.115 74.4163 102.424 74.4163ZM125.491 71.8102C123.418 73.0967 123.206 73.5718 123.595 73.5718C124.145 73.5718 125.792 72.7118 125.491 71.8102ZM123.33 73.0777C122.532 73.3135 122.408 73.4002 122.532 73.4002C122.71 73.4002 123.33 73.2441 123.33 73.0777ZM49.7515 72.3737C49.3795 72.3737 49.2732 72.528 49.3086 72.6841C49.3263 72.8401 49.4857 72.9944 49.6274 72.9944C49.7691 72.9944 49.9109 72.8418 49.9109 72.3806C49.8578 72.3754 49.8047 72.3737 49.7515 72.3737ZM32.7434 71.1721C32.4422 71.1721 32.1231 71.3108 32.1409 71.7269C33.7354 71.5934 33.2749 71.1721 32.7434 71.1721ZM51.2929 69.1278C49.9287 69.1919 49.911 69.2231 50.2299 69.2231C50.5666 69.2231 51.2752 69.1902 51.2929 69.1278ZM101.502 66.9482C101.414 66.9482 101.325 67.2152 101.29 67.4822C101.254 67.7475 101.29 68.0146 101.467 68.0146C101.52 68.0146 101.591 67.992 101.68 67.9383C101.68 67.1979 101.591 66.9482 101.502 66.9482ZM132.596 65.8229C132.224 65.8229 131.834 66.8528 132.985 66.8528C132.985 66.0812 132.791 65.8229 132.596 65.8229ZM64.6867 65.3599C64.2793 65.3599 63.8541 65.3946 63.8541 65.4986C66.3522 65.4986 65.5194 65.3599 64.6867 65.3599ZM116.367 63.326C116.331 63.326 116.278 63.3294 116.243 63.3364C116.208 63.9329 116.19 64.4842 116.58 64.4842C116.65 64.4842 116.739 64.4634 116.845 64.4201C116.898 63.7664 116.792 63.326 116.367 63.326ZM10.5973 63.2323C9.71146 63.2323 11.7843 63.2913 12.0855 63.2913C12.2272 63.2913 11.9261 63.2774 10.5973 63.2323ZM102.796 60.3852C101.095 60.3852 101.077 60.7927 101.644 60.7927C101.928 60.7927 102.353 60.6904 102.796 60.3852ZM44.3655 60.3852C43.3734 60.3852 43.7986 60.3991 44.1352 60.3991C44.3124 60.3991 44.4364 60.3956 44.3655 60.3852ZM45.1629 58.6305C45.1452 58.6305 45.1983 58.8663 45.2691 59.1021C45.3223 59.3362 45.4108 59.572 45.4817 59.572C45.2691 58.8663 45.1806 58.6305 45.1629 58.6305ZM127.847 58.0791C127.529 58.0791 127.156 58.2421 127.156 58.7154C128.733 58.497 128.361 58.0791 127.847 58.0791ZM41.708 58.2924C41.46 58.2924 41.0171 58.3652 40.6805 58.4363C40.3262 58.5074 40.0781 58.5802 40.2376 58.5802C40.3793 58.5802 40.8576 58.5212 41.8851 58.353C41.8851 58.3097 41.8143 58.2924 41.708 58.2924ZM70.0905 58.308C69.8247 58.308 69.683 58.3739 69.6298 58.4397C69.5944 58.5056 69.6475 58.5715 69.7892 58.5715C69.9132 58.5715 70.126 58.5108 70.3917 58.334C70.2854 58.3166 70.1791 58.308 70.0905 58.308ZM60.7004 57.1341C60.3638 57.2399 59.2833 57.7531 59.3187 57.7531C59.3541 57.7531 59.7083 57.5988 60.7004 57.1341ZM100.776 55.7001C100.741 55.7001 100.723 55.8648 100.723 56.0313C100.723 56.196 100.741 56.3607 100.776 56.3607C100.794 56.3607 100.829 56.2723 100.882 56.0278C100.829 55.7885 100.794 55.7001 100.776 55.7001ZM2.80184 54.3997C2.85499 55.6273 2.94358 56.0382 3.03217 56.0382C3.1739 56.0382 3.26248 54.5904 2.80184 54.3997ZM102.796 55.2996C101.839 55.8059 101.644 55.9827 101.751 55.9827C101.91 55.9827 102.743 55.5822 102.796 55.2996ZM92.0772 53.3853C92.0417 53.3853 92.0771 53.713 92.272 54.6944C92.2897 54.7239 92.3075 54.7378 92.3252 54.7378C92.4138 54.7378 92.3606 54.3997 92.2898 54.0615C92.2189 53.7234 92.1126 53.3853 92.0772 53.3853ZM20.0226 53.5292C20.0226 53.5292 19.9339 53.7182 19.7213 54.2852C19.8099 54.2159 20.0403 53.5292 20.0226 53.5292ZM115.41 52.2565C115.18 52.2565 115.41 52.6709 116.845 53.8656C117.093 53.2171 115.729 52.2565 115.41 52.2565ZM106.392 50.2174C102.938 50.3769 106.091 51.5543 107.331 51.5543C107.987 51.5543 108.111 51.2196 106.392 50.2174ZM103.434 50.1376V50.6578C103.416 50.9179 103.434 51.178 103.434 51.178C103.434 51.178 103.451 51.1711 103.451 51.1555C103.451 50.3925 103.434 50.1376 103.434 50.1376ZM110.184 49.6712C110.166 49.6712 110.166 49.7094 110.148 49.803C110.166 50.4688 110.184 50.6942 110.201 50.6942C110.219 50.6942 110.237 50.4376 110.237 50.1827C110.237 49.9261 110.219 49.6712 110.184 49.6712ZM11.1819 46.8154C11.1464 46.8154 11.1109 46.8189 11.0755 46.8275C11.0755 47.9789 11.1995 48.3638 11.3413 48.3638C11.4653 48.3638 11.6071 47.9754 11.6248 47.5888C11.6425 47.2021 11.5362 46.8154 11.1819 46.8154ZM87.3644 44.8179C87.2227 44.8179 87.081 45.456 87.0102 47.3737C87.7897 47.3079 87.6302 44.8179 87.3644 44.8179ZM80.0828 46.0109C79.1792 46.0195 79.0375 46.5588 78.9844 47.1657C79.7285 47.0495 80.0651 46.6368 80.0828 46.0109ZM114.347 45.2913C114.223 45.2913 113.408 46.2155 113.497 46.5553C114.241 45.6103 114.418 45.2913 114.347 45.2913ZM71.2598 45.163C71.1004 45.163 70.9408 45.4109 70.9408 46.1548C71.9153 46.1548 71.5965 45.163 71.2598 45.163ZM27.6232 44.9323C26.1704 44.9323 26.7196 45.6485 27.198 45.6485C27.446 45.6485 27.6586 45.4699 27.6232 44.9323ZM106.818 44.0723C106.8 44.0723 106.587 44.355 106.003 45.2046V45.2063C106.056 45.2063 106.268 44.9237 106.463 44.6393C106.64 44.355 106.818 44.0723 106.818 44.0723ZM100.475 39.4861C100.085 39.4861 99.3411 40.8732 100.493 40.8732C100.758 39.8329 100.652 39.4861 100.475 39.4861ZM106.587 39.0317C106.569 39.0317 106.552 39.3577 106.534 39.682C106.534 40.008 106.552 40.334 106.587 40.334H106.605C106.605 39.3577 106.587 39.0317 106.587 39.0317ZM12.5284 35.7841C11.9437 35.7841 11.7664 36.717 11.9613 36.717C12.0499 36.717 12.2449 36.4829 12.5284 35.7841ZM120.141 35.2691C119.68 35.2691 119.414 36.5956 120.778 36.5956C120.654 35.6003 120.371 35.2691 120.141 35.2691ZM27.7826 34.3796C27.5877 34.3796 27.1447 34.7402 26.3651 35.7841C26.5246 36.0632 26.7018 36.1742 26.8613 36.1742C27.2156 36.1742 27.5522 35.7251 27.7471 35.2778C27.9597 34.8287 28.0129 34.3796 27.7826 34.3796ZM118.387 33.4849C118.209 33.4849 118.015 33.7068 118.015 34.3761C119.131 34.3761 118.759 33.4849 118.387 33.4849ZM27.198 33.8386C26.9677 33.8386 26.6311 33.8716 26.0996 33.9548C26.0996 34.149 26.2767 34.2166 26.5248 34.2166C26.8082 34.2166 27.1625 34.123 27.3397 34.0276C27.5345 33.934 27.5523 33.8386 27.198 33.8386ZM109.865 33.1398C109.688 33.1398 109.546 33.3826 109.546 34.1039C109.741 34.1819 109.883 34.2166 109.989 34.2166C110.308 34.2166 110.361 33.9461 110.29 33.6773C110.219 33.4086 110.024 33.1398 109.865 33.1398ZM42.8774 32.9456C42.5762 32.9456 42.3104 33.1988 42.4167 33.9548C42.4522 33.9565 42.4875 33.9565 42.5229 33.9565C43.391 33.9565 43.6393 33.7034 43.5861 33.452C43.533 33.1988 43.1786 32.9456 42.8774 32.9456ZM88.2503 30.6811C88.1262 30.6811 87.9845 30.688 87.8428 30.7019C87.4353 31.933 87.6656 32.3457 88.0377 32.3457C88.4097 32.3457 88.9235 31.9295 89.1184 31.5134C89.3133 31.0972 89.1893 30.6811 88.2503 30.6811ZM67.1317 31.3851C67.0785 31.3851 67.061 31.6226 67.0964 31.8585C67.1319 32.0943 67.2025 32.3301 67.3265 32.3301C67.3265 32.3301 67.3443 32.3301 67.3443 32.3283C67.238 31.6209 67.1671 31.3851 67.1317 31.3851ZM112.097 30.2199C111.69 30.2199 111.265 30.9048 112.487 30.9048C112.505 30.3915 112.31 30.2199 112.097 30.2199ZM19.1545 29.7777C18.7647 30.0742 18.8002 30.1731 18.9773 30.1731C19.3317 30.1731 20.1998 29.7777 19.1545 29.7777ZM23.7608 29.0079C23.4773 29.0079 22.7686 29.2437 22.1663 29.4795C21.5639 29.7153 21.068 29.9511 21.2097 29.9511C21.3514 29.9511 22.0778 29.7292 23.885 29.072C23.885 29.0287 23.8317 29.0079 23.7608 29.0079ZM14.8669 26.0012C14.7252 26.0012 14.7607 26.3098 15.4162 27.0693C15.4517 26.4347 15.0441 26.0012 14.8669 26.0012ZM115.198 25.4151C115.074 25.4151 114.826 25.9717 115.074 26.5266C115.322 25.7134 115.304 25.4151 115.198 25.4151ZM81.9784 25.3961C81.8367 25.3961 81.8899 26.0255 82.2974 26.0255C82.1557 25.5539 82.0493 25.3961 81.9784 25.3961ZM106.003 22.4674C105.666 23.5407 106.127 23.8979 106.694 23.8979C107.827 23.8979 109.422 22.4674 106.003 22.4674ZM29.9795 21.6559C29.8023 21.8831 29.944 21.9576 30.1388 21.9576C30.5463 21.9576 31.1665 21.6559 29.9795 21.6559ZM59.602 18.0944C59.0528 18.4412 58.8579 19.0394 58.7694 19.7226C58.8402 19.7365 58.8934 19.7434 58.9642 19.7434C59.9564 19.7434 60.6119 18.1482 59.602 18.0944ZM30.8476 17.2465C30.4932 17.2465 30.2097 17.5378 30.3869 18.4117C32.4952 18.4117 31.5562 17.2465 30.8476 17.2465ZM73.9881 16.2651C74.0944 16.6206 74.3248 16.7385 74.5374 16.7385C74.9272 16.7385 75.1928 16.2651 73.9881 16.2651ZM38.2533 15.4276V15.4294C38.7848 15.5611 38.9796 15.6045 38.9973 15.6045C38.9973 15.6045 38.8379 15.5612 38.6608 15.5161C38.4836 15.4727 38.3065 15.4276 38.2533 15.4276ZM39.8301 11.1014C39.9719 11.9979 40.3439 12.4886 40.4857 12.4886C40.6097 12.4886 40.5211 12.0499 39.8301 11.1014ZM75.6713 7.85552C75.689 8.20405 77.4253 9.1369 77.6201 9.1369C77.7264 9.1369 77.3013 8.81266 75.6713 7.85552ZM71.5079 7.31801C68.8327 7.31801 71.2953 8.46413 72.1812 8.46413C72.6241 8.46413 72.6772 8.17804 71.5079 7.31801ZM47.7673 4.25933C46.9877 4.25933 46.2258 4.4726 48.529 4.4726C48.529 4.31308 48.1393 4.25933 47.7673 4.25933ZM108.394 92.1181C108.005 92.1111 107.81 91.9031 107.81 91.695C107.81 91.9031 108.005 92.1111 108.394 92.1181ZM108.448 92.1181C108.501 92.1146 108.554 92.1111 108.607 92.1025V91.2892V92.1025C108.554 92.1111 108.501 92.1146 108.448 92.1181ZM108.607 91.2892C108.589 91.2875 108.571 91.2858 108.554 91.284C108.571 91.2858 108.589 91.2875 108.607 91.2892ZM108.483 91.2754C108.465 91.2754 108.448 91.2736 108.43 91.2736C108.448 91.2736 108.465 91.2754 108.483 91.2754ZM108.394 91.2736H108.412H108.394Z" fill="url(#paint0_linear_4165_264198)"/>
<defs>
<linearGradient id="paint0_linear_4165_264198" x1="88.5655" y1="138.296" x2="22.9776" y2="-14.1739" gradientUnits="userSpaceOnUse">
<stop stop-color="white" stop-opacity="0.6"/>
<stop offset="1" stop-color="white" stop-opacity="0.9"/>
</linearGradient>
</defs>
</svg>
