<svg width="58" height="56" viewBox="0 0 58 56" fill="none" xmlns="http://www.w3.org/2000/svg">
<path fill-rule="evenodd" clip-rule="evenodd" d="M28.6606 55.3125C26.4154 55.3125 24.2311 55.0623 22.1382 54.5898C22.1686 54.2858 22.1762 54.1724 22.1762 54.1724C22.1762 54.1724 22.1534 54.3741 22.1306 54.5883C15.0297 52.9846 8.94106 48.8196 4.96824 43.154C5.27267 43.0899 5.22698 42.8684 5.04432 42.6564V42.5858L4.99109 42.5961C4.80082 42.3966 4.51162 42.22 4.33658 42.2112C1.62714 37.9836 0.0593262 32.9966 0.0593262 27.6562C0.0593262 25.3129 0.363683 23.0372 0.93449 20.8638C0.949712 20.8748 0.972604 20.8807 0.995436 20.8807C1.11721 20.8807 1.23894 20.707 1.23894 20.1845C1.19328 20.1845 1.15529 20.1874 1.11723 20.1918C1.71087 18.1465 2.53282 16.1976 3.56788 14.3731C3.67443 14.5453 3.97886 14.733 4.13869 14.733C4.28329 14.733 4.31373 14.5741 3.9408 14.0971C3.84947 14.0971 3.77333 14.1045 3.72006 14.117C8.6214 5.6914 17.9522 0 28.6606 0C44.4529 0 57.2618 12.3823 57.2618 27.6562C57.2618 38.593 50.6938 48.0468 41.1651 52.5341C41.1499 52.0675 41.0509 51.9049 40.9444 51.9049C40.8226 51.9049 40.6856 52.1176 40.6399 52.331C40.6095 52.4944 40.6323 52.6585 40.7541 52.7255C37.0781 54.3851 32.9835 55.3125 28.6606 55.3125ZM34.2165 53.8317C34.1175 53.8943 34.0871 53.9148 34.0947 53.9148C34.1023 53.9148 34.2317 53.8317 34.2165 53.8317ZM31.2406 52.5231C30.9362 52.5717 30.8144 53.0125 30.9057 53.0125C30.959 53.0125 31.0656 52.8904 31.2406 52.5231ZM25.1292 52.4878C25.1139 52.4878 25.0683 52.568 25.0378 52.6482C25.0074 52.7284 24.9998 52.8079 25.0531 52.8079C25.1368 52.568 25.152 52.4878 25.1292 52.4878ZM28.1506 49.8257C28.1049 50.0075 28.0898 50.0686 28.0898 50.0686C28.0898 50.0686 28.1506 49.8323 28.1506 49.8257ZM46.584 46.6448C46.5307 46.6448 46.5763 46.8685 46.8199 47.1989C46.7285 46.8059 46.622 46.6448 46.584 46.6448ZM25.6923 45.4098C25.6771 45.4098 25.7076 45.5996 25.8522 46.1465C25.9436 46.3342 25.9892 46.4085 26.012 46.4085C26.0425 46.4085 25.974 46.1583 25.8902 45.9088C25.8141 45.66 25.7152 45.4098 25.6923 45.4098ZM42.5883 45.7365C42.3295 45.7365 42.2534 45.8889 42.2686 46.0405C42.2762 46.1914 42.3752 46.3423 42.4741 46.3423C42.5655 46.3423 42.6568 46.1929 42.6568 45.741C42.634 45.738 42.6111 45.7365 42.5883 45.7365ZM24.3301 45.8918C24.2464 45.8918 23.9952 46.3114 24.2235 46.3371C24.3681 46.003 24.3681 45.8918 24.3301 45.8918ZM46.2262 45.4966C46.1425 45.5813 46.2186 45.6092 46.3251 45.6092C46.5306 45.6092 46.8427 45.4966 46.2262 45.4966ZM15.1286 44.5994C14.9916 44.5994 14.809 44.7621 14.6948 44.9225C14.5731 45.0845 14.5274 45.2456 14.6644 45.2456C14.7633 45.2456 14.9611 45.1595 15.3036 44.924C15.3036 44.6863 15.2275 44.5994 15.1286 44.5994ZM26.3621 44.213C26.3088 44.213 25.9816 44.8548 26.1262 44.8703C26.3393 44.3772 26.3925 44.213 26.3621 44.213ZM10.5469 44.3521C9.8391 44.3521 10.0827 44.8482 10.3186 44.8482C10.4328 44.8482 10.5545 44.7246 10.5469 44.3521ZM9.64126 44.0909C9.47382 44.0909 9.30639 44.2513 9.26072 44.4118C9.21506 44.5715 9.29111 44.7319 9.58793 44.7319C9.70209 44.7319 9.84677 44.7091 10.037 44.6546C9.96093 44.2336 9.80109 44.0909 9.64126 44.0909ZM7.7538 44.3095C7.55592 44.3536 7.17533 44.6142 7.22099 44.6142C7.24383 44.6142 7.38849 44.5376 7.7538 44.3095ZM32.7323 43.873C32.5268 43.873 31.9712 44.163 32.0778 44.5155C32.8389 44.0504 32.8921 43.873 32.7323 43.873ZM41.8044 43.0877C41.7739 43.0877 41.7282 43.2857 41.675 43.8502C41.713 44.0776 41.7435 44.1667 41.7739 44.1667C41.812 44.1667 41.8424 43.8966 41.8424 43.6272C41.85 43.3578 41.8348 43.0877 41.8044 43.0877ZM43.9506 44.0239C43.844 44.0239 43.6918 44.0592 43.5777 44.0946C43.4559 44.1299 43.3798 44.1652 43.4179 44.1652C43.4559 44.1652 43.6157 44.1299 43.9658 44.0246C43.9658 44.0246 43.9582 44.0239 43.9506 44.0239ZM12.3279 43.1385C12.3127 43.1385 12.2137 43.3784 12.1224 43.6191C12.0234 43.8598 11.9321 44.1004 11.9397 44.1004C11.9473 44.1004 12.0463 43.8612 12.3279 43.1437V43.1385ZM42.436 42.8154C42.4056 43.0539 42.5274 43.416 42.5578 43.416C42.5807 43.4167 42.5654 43.2614 42.436 42.8154ZM43.9202 42.7322C43.9126 42.7322 43.9201 42.8515 43.9353 42.97C43.9506 43.0892 43.9582 43.2077 43.9658 43.2077V43.0465C43.9354 42.8147 43.9202 42.7322 43.9202 42.7322ZM42.1316 42.5114C42.0327 42.5114 41.9338 42.6093 41.9109 42.7072C41.8805 42.8051 41.9261 42.9037 42.124 42.9037C42.1773 42.9037 42.2306 42.8978 42.2991 42.8846C42.2991 42.6049 42.2229 42.5114 42.1316 42.5114ZM12.0311 42.245C11.9549 42.245 11.7647 42.3046 11.3765 42.471C11.3385 42.5806 11.3689 42.6218 11.445 42.6218C11.5516 42.6218 11.7418 42.5276 11.8864 42.4334C12.031 42.3392 12.13 42.245 12.0311 42.245ZM47.5809 41.5215C47.4668 41.5215 47.2918 41.7549 47.0635 42.4533C47.1091 42.4673 47.1547 42.4739 47.2004 42.4739C47.4592 42.4739 47.6114 42.2354 47.6646 41.9977C47.7255 41.7593 47.6875 41.5215 47.5809 41.5215ZM47.6723 41.5282C47.6646 41.5282 47.6647 41.5664 47.6875 41.668C47.7712 41.8454 47.8093 41.9087 47.8169 41.9087C47.8321 41.9087 47.8016 41.8137 47.7636 41.718C47.7255 41.6231 47.6875 41.5282 47.6723 41.5282ZM47.3298 41.1432C47.2994 41.1432 47.2612 41.3199 47.2612 41.7828C47.383 41.4325 47.3679 41.1432 47.3298 41.1432ZM39.818 41.4384C39.9169 41.5723 39.9854 41.6238 40.0235 41.6238C40.092 41.6238 40.0995 41.495 40.0691 41.3655C40.0463 41.2374 39.993 41.1086 39.9322 41.1086C39.8865 41.1086 39.8408 41.1948 39.818 41.4384C39.8484 41.1388 39.7875 41.0387 39.7114 41.0387C39.5592 41.0387 39.3689 41.4251 39.818 41.4384ZM19.3298 41.0461C19.1852 41.0461 19.0254 41.1778 18.9873 41.5738C19.0178 41.5745 19.0482 41.5753 19.0786 41.5753C19.4744 41.5753 19.6114 41.4428 19.6114 41.3103C19.6114 41.1778 19.4744 41.0461 19.3298 41.0461ZM7.24385 40.7487C7.25146 41.0409 7.36567 41.1925 7.57877 41.2087C7.57116 40.9166 7.45695 40.7613 7.24385 40.7487ZM37.5956 40.4919C37.588 40.4919 37.6717 40.6141 37.9533 40.9791C37.9837 40.9703 37.6032 40.4919 37.5956 40.4919ZM35.7386 40.7296C35.5103 40.7296 34.7263 40.7568 35.4037 40.7568C35.8223 40.7362 35.8528 40.7296 35.7386 40.7296ZM12.2442 40.0532C12.1985 40.0532 12.1529 40.1673 12.1529 40.2821C12.1529 40.3969 12.1909 40.5118 12.3126 40.5118C12.3203 40.5118 12.3279 40.511 12.3279 40.511C12.3279 40.1673 12.2898 40.0532 12.2442 40.0532ZM14.5274 38.8941C14.3752 38.8941 14.398 39.081 14.4893 39.2679C14.5883 39.4556 14.7557 39.6426 14.8851 39.6426C14.984 39.6426 15.0677 39.5196 15.0677 39.1737C14.7938 38.9706 14.6263 38.8941 14.5274 38.8941ZM46.5154 38.2721C46.3708 38.2721 46.1273 38.3561 45.7543 38.5702C45.663 39.1465 45.7695 39.3474 45.9294 39.3474C46.1196 39.3474 46.4013 39.0788 46.5611 38.8102C46.7286 38.5408 46.7742 38.2721 46.5154 38.2721ZM54.1034 38.2096C54.0349 38.2096 54.1415 38.3656 54.2861 38.5224C54.4307 38.6784 54.6209 38.8352 54.7275 38.8352C54.7807 38.8352 54.8035 38.791 54.7883 38.6814C54.3697 38.331 54.1719 38.2096 54.1034 38.2096ZM22.2066 38.387C21.1792 38.387 21.5978 38.7778 21.9403 38.7778C22.1077 38.7778 22.2599 38.6799 22.2066 38.387ZM6.30774 37.5627C6.12508 37.5627 5.93477 37.7032 5.88911 37.8438C5.84344 37.9844 5.95 38.1249 6.36859 38.1249C6.45231 38.1249 6.54364 38.1198 6.65019 38.1073C6.65019 37.6995 6.48279 37.5627 6.30774 37.5627ZM49.9099 37.5693C48.6084 37.5693 49.2021 38.005 49.6359 38.005C49.849 38.005 50.0316 37.8961 49.9099 37.5693ZM53.0074 37.0269C52.9541 37.0269 52.8705 37.1321 52.7715 37.4471C52.7791 37.4486 52.7943 37.4493 52.8095 37.4493C52.9465 37.4493 53.0227 37.3441 53.0531 37.2381C53.076 37.1321 53.0607 37.0269 53.0074 37.0269ZM16.8486 36.3262C16.567 36.3313 16.1409 36.7008 16.2322 36.7008C16.2779 36.7008 16.4605 36.6073 16.8486 36.3262ZM24.3986 36.3586C24.254 36.3586 24.1702 36.3748 24.3452 36.4256C24.8323 36.4256 24.8704 36.4035 24.7562 36.3843C24.6877 36.3733 24.5736 36.363 24.467 36.3593C24.4442 36.3586 24.4214 36.3586 24.3986 36.3586ZM25.1368 36.2533C24.7486 36.2533 24.4975 36.3174 24.467 36.3593C24.5736 36.363 24.6877 36.3733 24.7562 36.3843C24.9085 36.3674 25.1215 36.3313 25.4108 36.2629C25.3118 36.2563 25.2281 36.2533 25.1368 36.2533ZM29.7489 35.0036C29.7489 35.2126 30.5404 35.5828 30.6698 35.5828C30.7535 35.5828 30.5709 35.4349 29.7489 35.0036ZM17.5565 34.0741C17.5184 34.0741 17.5869 34.1918 17.8989 34.5444H17.9065C18.0131 34.5444 17.9446 34.4266 17.8381 34.3088C17.7315 34.1918 17.5869 34.0741 17.5565 34.0741ZM38.1664 33.7723C38.1436 33.7723 38.1283 33.8525 38.1283 34.0851C38.1588 34.1315 38.1817 34.1506 38.2045 34.1506C38.2426 34.1506 38.2425 34.0564 38.2349 33.9615C38.2197 33.8673 38.1892 33.7723 38.1664 33.7723ZM27.5418 33.1261C27.4124 33.1261 27.1612 33.2652 26.7198 33.6465C26.7198 34.0108 26.8111 34.1447 26.9329 34.1447C27.108 34.1447 27.3439 33.8901 27.4885 33.6354C27.6407 33.3808 27.7092 33.1261 27.5418 33.1261ZM56.2191 33.7186C56.2039 33.7186 56.143 33.932 56.143 34.0851C56.2192 33.8135 56.2344 33.7186 56.2191 33.7186ZM48.1365 32.9826C48.0376 32.9826 47.9386 33.1151 47.9386 33.5118C48.5399 33.5118 48.342 32.9826 48.1365 32.9826ZM10.7448 32.9075C10.6382 32.9075 10.4937 33.0113 10.4252 33.3189C11.0264 33.2284 10.9351 32.9075 10.7448 32.9075ZM43.6918 31.3215C43.6538 31.3215 43.6005 31.3237 43.5397 31.3281C43.5168 31.4709 43.5625 31.5415 43.6918 31.5415C43.7756 31.5415 43.8897 31.5084 44.0495 31.4422C43.6081 31.4422 43.9887 31.3215 43.6918 31.3215ZM53.6011 30.2153C52.7106 30.7614 52.6192 30.963 52.7867 30.963C53.0226 30.963 53.7305 30.598 53.6011 30.2153ZM52.6726 30.7533C52.3301 30.8534 52.2768 30.8902 52.33 30.8902C52.4062 30.8902 52.6726 30.8239 52.6726 30.7533ZM21.065 30.4545C20.9052 30.4545 20.8595 30.52 20.8748 30.5862C20.8824 30.6525 20.9508 30.718 21.0117 30.718C21.0726 30.718 21.1335 30.6532 21.1335 30.4574C21.1107 30.4552 21.0879 30.4545 21.065 30.4545ZM13.7587 29.9444C13.6293 29.9444 13.4923 30.0033 13.4999 30.1799C14.1848 30.1233 13.987 29.9444 13.7587 29.9444ZM21.7272 29.0767C21.1411 29.1039 21.1335 29.1172 21.2705 29.1172C21.4151 29.1172 21.7196 29.1032 21.7272 29.0767ZM43.2961 28.1516C43.258 28.1516 43.22 28.2649 43.2047 28.3783C43.1895 28.4909 43.2047 28.6042 43.2808 28.6042C43.3037 28.6042 43.3341 28.5946 43.3722 28.5718C43.3722 28.2575 43.3341 28.1516 43.2961 28.1516ZM56.653 27.6739C56.4932 27.6739 56.3257 28.1111 56.8204 28.1111C56.8204 27.7836 56.7367 27.6739 56.653 27.6739ZM27.4809 27.4774C27.3058 27.4774 27.1232 27.4921 27.1232 27.5363C28.1963 27.5363 27.8386 27.4774 27.4809 27.4774ZM49.6815 26.6141C49.6663 26.6141 49.6435 26.6156 49.6283 26.6185C49.6131 26.8717 49.6054 27.1057 49.7728 27.1057C49.8033 27.1057 49.8414 27.0969 49.887 27.0785C49.9099 26.801 49.8642 26.6141 49.6815 26.6141ZM4.24525 26.5743C3.86471 26.5743 4.75515 26.5994 4.88453 26.5994C4.94542 26.5994 4.81606 26.5935 4.24525 26.5743ZM43.8516 25.3658C43.121 25.3658 43.1135 25.5388 43.357 25.5388C43.4788 25.5388 43.6614 25.4954 43.8516 25.3658ZM18.7513 25.3658C18.3251 25.3658 18.5078 25.3717 18.6524 25.3717C18.7285 25.3717 18.7818 25.3703 18.7513 25.3658ZM19.0939 24.621C19.0863 24.621 19.109 24.7211 19.1395 24.8212C19.1623 24.9206 19.2004 25.0207 19.2308 25.0207C19.1395 24.7211 19.1015 24.621 19.0939 24.621ZM54.6133 24.387C54.4763 24.387 54.3164 24.4562 54.3164 24.6571C54.9938 24.5644 54.834 24.387 54.6133 24.387ZM17.6097 24.4775C17.5032 24.4775 17.3129 24.5084 17.1683 24.5386C17.0161 24.5688 16.9096 24.5997 16.9781 24.5997C17.0389 24.5997 17.2444 24.5747 17.6858 24.5033C17.6858 24.4849 17.6554 24.4775 17.6097 24.4775ZM29.8022 24.4841C29.688 24.4841 29.6271 24.5121 29.6043 24.5401C29.5891 24.568 29.6119 24.596 29.6728 24.596C29.726 24.596 29.8174 24.5702 29.9316 24.4952C29.8859 24.4878 29.8402 24.4841 29.8022 24.4841ZM25.7684 23.9859C25.6238 24.0308 25.1596 24.2486 25.1749 24.2486C25.1901 24.2486 25.3422 24.1831 25.7684 23.9859ZM42.984 23.3772C42.9688 23.3772 42.9612 23.4471 42.9612 23.5178C42.9612 23.5877 42.9688 23.6576 42.984 23.6576C42.9916 23.6576 43.0069 23.6201 43.0297 23.5163C43.0069 23.4147 42.9916 23.3772 42.984 23.3772ZM0.896492 22.8252C0.919325 23.3463 0.957382 23.5207 0.995436 23.5207C1.05632 23.5207 1.09437 22.9062 0.896492 22.8252ZM43.8516 23.2072C43.4407 23.4221 43.357 23.4972 43.4026 23.4972C43.4711 23.4972 43.8288 23.3272 43.8516 23.2072ZM39.2472 22.3947C39.232 22.3947 39.2472 22.5338 39.3309 22.9503C39.3385 22.9628 39.3461 22.9687 39.3537 22.9687C39.3918 22.9687 39.3689 22.8252 39.3385 22.6817C39.3081 22.5382 39.2624 22.3947 39.2472 22.3947ZM8.29414 22.4558C8.29414 22.4558 8.25605 22.536 8.16472 22.7766C8.20278 22.7472 8.30175 22.4558 8.29414 22.4558ZM49.2705 21.9155C49.1716 21.9155 49.2705 22.0914 49.887 22.5985C49.9936 22.3233 49.4075 21.9155 49.2705 21.9155ZM45.3966 21.05C43.9125 21.1177 45.2673 21.6175 45.8 21.6175C46.0816 21.6175 46.1349 21.4754 45.3966 21.05ZM44.1256 21.0162V21.2369C44.118 21.3473 44.1256 21.4577 44.1256 21.4577C44.1256 21.4577 44.1332 21.4548 44.1332 21.4482C44.1332 21.1243 44.1256 21.0162 44.1256 21.0162ZM47.0254 20.8182C47.0177 20.8182 47.0177 20.8344 47.0101 20.8741C47.0177 21.1567 47.0254 21.2524 47.033 21.2524C47.0406 21.2524 47.0482 21.1435 47.0482 21.0353C47.0482 20.9264 47.0406 20.8182 47.0254 20.8182ZM4.49637 19.606C4.48115 19.606 4.46588 19.6075 4.45066 19.6112C4.45066 20.0998 4.50396 20.2632 4.56484 20.2632C4.61812 20.2632 4.67903 20.0984 4.68664 19.9343C4.69425 19.7701 4.64859 19.606 4.49637 19.606ZM37.2227 18.7581C37.1618 18.7581 37.1009 19.029 37.0705 19.843C37.4054 19.815 37.3368 18.7581 37.2227 18.7581ZM34.0947 19.2645C33.7065 19.2682 33.6456 19.4971 33.6228 19.7547C33.9425 19.7054 34.0871 19.5302 34.0947 19.2645ZM48.8139 18.9591C48.7606 18.9591 48.4105 19.3513 48.4486 19.4956C48.7682 19.0945 48.8443 18.9591 48.8139 18.9591ZM30.3045 18.9046C30.236 18.9046 30.1675 19.0098 30.1675 19.3256C30.5861 19.3256 30.4491 18.9046 30.3045 18.9046ZM11.5592 18.8067C10.9351 18.8067 11.171 19.1107 11.3765 19.1107C11.4831 19.1107 11.5744 19.0349 11.5592 18.8067ZM45.5793 18.4417C45.5717 18.4417 45.4804 18.5616 45.2292 18.9223V18.923C45.2521 18.923 45.3434 18.803 45.4271 18.6823C45.5032 18.5616 45.5793 18.4417 45.5793 18.4417ZM42.8547 16.495C42.6872 16.495 42.3676 17.0838 42.8623 17.0838C42.9765 16.6422 42.9308 16.495 42.8547 16.495ZM45.4804 16.3021C45.4727 16.3021 45.4651 16.4405 45.4575 16.5781C45.4575 16.7165 45.4651 16.8549 45.4804 16.8549H45.488C45.488 16.4405 45.4804 16.3021 45.4804 16.3021ZM5.0748 14.9236C4.82364 14.9236 4.74748 15.3196 4.8312 15.3196C4.86926 15.3196 4.95303 15.2202 5.0748 14.9236ZM51.3026 14.7051C51.1047 14.7051 50.9906 15.2681 51.5766 15.2681C51.5233 14.8456 51.4016 14.7051 51.3026 14.7051ZM11.6277 14.3275C11.5439 14.3275 11.3536 14.4806 11.0188 14.9236C11.0873 15.0421 11.1634 15.0892 11.2319 15.0892C11.3841 15.0892 11.5287 14.8986 11.6124 14.7087C11.7038 14.5181 11.7266 14.3275 11.6277 14.3275ZM50.5492 13.9477C50.473 13.9477 50.3894 14.0419 50.3894 14.326C50.8688 14.326 50.709 13.9477 50.5492 13.9477ZM11.3765 14.0979C11.2776 14.0979 11.133 14.1118 10.9047 14.1472C10.9047 14.2296 10.9808 14.2583 11.0873 14.2583C11.2091 14.2583 11.3613 14.2186 11.4374 14.1781C11.5211 14.1383 11.5288 14.0979 11.3765 14.0979ZM46.8883 13.8013C46.8122 13.8013 46.7514 13.9043 46.7514 14.2105C46.8351 14.2436 46.896 14.2583 46.9417 14.2583C47.0786 14.2583 47.1014 14.1435 47.071 14.0294C47.0405 13.9153 46.9568 13.8013 46.8883 13.8013ZM18.1121 13.7188C17.9827 13.7188 17.8685 13.8263 17.9142 14.1472C17.9294 14.1479 17.9446 14.1479 17.9598 14.1479C18.3327 14.1479 18.4393 14.0405 18.4165 13.9337C18.3937 13.8263 18.2414 13.7188 18.1121 13.7188ZM37.6032 12.7576C37.5499 12.7576 37.4891 12.7606 37.4282 12.7665C37.2531 13.289 37.3521 13.4642 37.5119 13.4642C37.6717 13.4642 37.8924 13.2875 37.9761 13.1109C38.0599 12.9343 38.0066 12.7576 37.6032 12.7576ZM28.5312 13.0564C28.5083 13.0564 28.5008 13.1573 28.516 13.2574C28.5312 13.3575 28.5616 13.4576 28.6149 13.4576C28.6149 13.4576 28.6225 13.4576 28.6225 13.4568C28.5768 13.1565 28.5464 13.0564 28.5312 13.0564ZM47.8473 12.5618C47.6722 12.5618 47.4897 12.8526 48.0148 12.8526C48.0224 12.6347 47.9386 12.5618 47.8473 12.5618ZM7.92122 12.3742C7.75378 12.5 7.76902 12.542 7.84513 12.542C7.99734 12.542 8.37025 12.3742 7.92122 12.3742ZM9.9 12.0474C9.77823 12.0474 9.47378 12.1475 9.21501 12.2476C8.95625 12.3477 8.74321 12.4478 8.80409 12.4478C8.86498 12.4478 9.17703 12.3536 9.95333 12.0746C9.95333 12.0562 9.93044 12.0474 9.9 12.0474ZM6.07938 10.7712C6.01849 10.7712 6.03376 10.9022 6.31536 11.2246C6.33058 10.9552 6.15549 10.7712 6.07938 10.7712ZM49.1792 10.5224C49.1259 10.5224 49.0194 10.7587 49.1259 10.9942C49.2325 10.649 49.2248 10.5224 49.1792 10.5224ZM34.909 10.5143C34.8481 10.5143 34.871 10.7815 35.046 10.7815C34.9851 10.5813 34.9394 10.5143 34.909 10.5143ZM45.2292 9.27125C45.0846 9.72683 45.2825 9.87844 45.5261 9.87844C46.0131 9.87844 46.6981 9.27125 45.2292 9.27125ZM12.5714 8.92681C12.4953 9.02322 12.5561 9.05486 12.6399 9.05486C12.8149 9.05486 13.0813 8.92681 12.5714 8.92681ZM25.2966 7.41508C25.0606 7.56228 24.9769 7.81619 24.9389 8.10617C24.9693 8.11206 24.9922 8.11501 25.0226 8.11501C25.4488 8.11501 25.7304 7.4379 25.2966 7.41508ZM12.9443 7.05519C12.7921 7.05519 12.6703 7.17883 12.7464 7.54977C13.6521 7.54977 13.2487 7.05519 12.9443 7.05519ZM31.4765 6.63862C31.5222 6.7895 31.6212 6.83954 31.7125 6.83954C31.8799 6.83954 31.994 6.63862 31.4765 6.63862ZM16.1257 6.28314V6.28387C16.354 6.3398 16.4376 6.3582 16.4452 6.3582C16.4452 6.3582 16.3768 6.3398 16.3007 6.32067C16.2246 6.30227 16.1485 6.28314 16.1257 6.28314ZM16.803 4.44684C16.8639 4.82734 17.0237 5.03563 17.0846 5.03563C17.1379 5.03563 17.0998 4.84942 16.803 4.44684ZM32.1996 3.06907C32.2072 3.21701 32.953 3.61297 33.0368 3.61297C33.0824 3.61297 32.8998 3.47534 32.1996 3.06907ZM30.4111 2.84092C29.2619 2.84092 30.3198 3.3274 30.7003 3.3274C30.8906 3.3274 30.9134 3.20597 30.4111 2.84092ZM20.2126 1.54263C19.8778 1.54263 19.5504 1.63315 20.5398 1.63315C20.5398 1.56544 20.3725 1.54263 20.2126 1.54263ZM46.2567 38.8352C46.0892 38.8322 46.0055 38.7439 46.0055 38.6556C46.0055 38.7439 46.0892 38.8322 46.2567 38.8352ZM46.2795 38.8352C46.3024 38.8337 46.3252 38.8322 46.348 38.8286V38.4834V38.8286C46.3252 38.8322 46.3024 38.8337 46.2795 38.8352ZM46.348 38.4834C46.3404 38.4826 46.3327 38.4819 46.3251 38.4812C46.3327 38.4819 46.3404 38.4826 46.348 38.4834ZM46.2948 38.4775C46.2871 38.4775 46.2795 38.4768 46.2719 38.4768C46.2795 38.4768 46.2871 38.4775 46.2948 38.4775ZM46.2567 38.4768H46.2643H46.2567Z" fill="url(#paint0_linear_4165_264271)" fill-opacity="0.08"/>
<defs>
<linearGradient id="paint0_linear_4165_264271" x1="37.7386" y1="58.436" x2="10.1287" y2="-6.52176" gradientUnits="userSpaceOnUse">
<stop stop-color="white" stop-opacity="0.6"/>
<stop offset="1" stop-color="white" stop-opacity="0.9"/>
</linearGradient>
</defs>
</svg>
