<svg width="215" height="211" viewBox="0 0 215 211" fill="none" xmlns="http://www.w3.org/2000/svg">
<path fill-rule="evenodd" clip-rule="evenodd" d="M107.372 210.937C98.9432 210.937 90.7433 209.983 82.8861 208.181C83.0004 207.022 83.0287 206.59 83.0287 206.59C83.0287 206.59 82.9432 207.359 82.8575 208.176C56.2002 202.06 33.3429 186.176 18.4285 164.57C19.5714 164.326 19.3999 163.481 18.7142 162.673V162.403L18.5143 162.443C17.8 161.682 16.7143 161.008 16.0572 160.975C5.88573 144.853 0 125.834 0 105.469C0 96.5321 1.14258 87.8536 3.28545 79.5653C3.34259 79.6074 3.42853 79.6299 3.51424 79.6299C3.97139 79.6299 4.42838 78.9675 4.42838 76.9748C4.25695 76.9748 4.11435 76.986 3.97149 77.0028C6.20007 69.2029 9.28571 61.7707 13.1714 54.8128C13.5714 55.4696 14.7143 56.1853 15.3143 56.1853C15.8572 56.1853 15.9714 55.579 14.5714 53.7602C14.2286 53.7602 13.9427 53.7883 13.7427 53.836C32.1428 21.7045 67.1716 0 107.372 0C166.658 0 214.744 47.2205 214.744 105.469C214.744 147.177 190.087 183.229 154.315 200.342C154.258 198.563 153.886 197.942 153.486 197.942C153.029 197.942 152.515 198.753 152.343 199.567C152.229 200.191 152.315 200.816 152.772 201.072C138.972 207.401 123.6 210.937 107.372 210.937ZM128.229 205.29C127.858 205.529 127.743 205.607 127.772 205.607C127.8 205.607 128.286 205.29 128.229 205.29ZM117.058 200.3C115.915 200.485 115.457 202.166 115.8 202.166C116 202.166 116.4 201.7 117.058 200.3ZM94.1145 200.165C94.0574 200.165 93.886 200.471 93.7717 200.777C93.6574 201.083 93.6289 201.386 93.8289 201.386C94.1432 200.471 94.2002 200.165 94.1145 200.165ZM105.457 190.013C105.286 190.706 105.229 190.939 105.229 190.939C105.229 190.939 105.457 190.038 105.457 190.013ZM174.658 177.883C174.458 177.883 174.629 178.736 175.543 179.996C175.201 178.497 174.801 177.883 174.658 177.883ZM96.2288 173.173C96.1716 173.173 96.2862 173.897 96.829 175.982C97.1719 176.698 97.3432 176.982 97.4289 176.982C97.5432 176.982 97.286 176.027 96.9717 175.076C96.686 174.127 96.3145 173.173 96.2288 173.173ZM159.658 174.419C158.686 174.419 158.401 175 158.458 175.578C158.486 176.154 158.858 176.729 159.229 176.729C159.572 176.729 159.915 176.159 159.915 174.436C159.829 174.425 159.744 174.419 159.658 174.419ZM91.1147 175.011C90.8004 175.011 89.8575 176.611 90.7147 176.709C91.2575 175.435 91.2576 175.011 91.1147 175.011ZM173.315 173.504C173 173.827 173.286 173.933 173.686 173.933C174.458 173.933 175.629 173.504 173.315 173.504ZM56.5715 170.083C56.0572 170.083 55.3716 170.703 54.943 171.315C54.4859 171.932 54.3144 172.547 54.8286 172.547C55.2001 172.547 55.9428 172.219 57.2286 171.32C57.2286 170.414 56.9429 170.083 56.5715 170.083ZM98.7431 168.609C98.5431 168.609 97.3147 171.057 97.8576 171.115C98.6576 169.235 98.8574 168.609 98.7431 168.609ZM39.3713 169.14C36.7142 169.14 37.6287 171.031 38.5144 171.031C38.943 171.031 39.3999 170.56 39.3713 169.14ZM35.9715 168.143C35.3429 168.143 34.7143 168.755 34.5429 169.367C34.3715 169.976 34.657 170.588 35.7713 170.588C36.1999 170.588 36.743 170.501 37.4573 170.293C37.1715 168.688 36.5715 168.143 35.9715 168.143ZM28.8858 168.977C28.1429 169.145 26.7141 170.139 26.8856 170.139C26.9713 170.139 27.5144 169.847 28.8858 168.977ZM122.657 167.312C121.886 167.312 119.8 168.418 120.2 169.763C123.058 167.989 123.257 167.312 122.657 167.312ZM156.715 164.318C156.601 164.318 156.429 165.073 156.229 167.225C156.372 168.093 156.486 168.432 156.6 168.432C156.743 168.432 156.858 167.402 156.858 166.375C156.886 165.348 156.829 164.318 156.715 164.318ZM164.772 167.888C164.372 167.888 163.801 168.022 163.372 168.157C162.915 168.292 162.629 168.427 162.772 168.427C162.915 168.427 163.515 168.292 164.829 167.891C164.829 167.891 164.8 167.888 164.772 167.888ZM46.0573 164.511C46.0002 164.511 45.6287 165.426 45.2858 166.344C44.9144 167.262 44.5716 168.18 44.6001 168.18C44.6287 168.18 45.0002 167.267 46.0573 164.531V164.511ZM159.086 163.279C158.972 164.188 159.429 165.569 159.543 165.569C159.629 165.572 159.572 164.98 159.086 163.279ZM164.658 162.962C164.629 162.962 164.658 163.417 164.715 163.869C164.772 164.323 164.801 164.775 164.829 164.775V164.16C164.715 163.276 164.658 162.962 164.658 162.962ZM157.943 162.12C157.572 162.12 157.201 162.493 157.115 162.866C157.001 163.24 157.172 163.616 157.915 163.616C158.115 163.616 158.315 163.593 158.572 163.543C158.572 162.476 158.286 162.12 157.943 162.12ZM44.943 161.104C44.6573 161.104 43.943 161.331 42.4859 161.966C42.343 162.384 42.4572 162.541 42.7429 162.541C43.1429 162.541 43.8571 162.182 44.4 161.822C44.9428 161.463 45.3144 161.104 44.943 161.104ZM178.401 158.345C177.972 158.345 177.315 159.235 176.458 161.898C176.629 161.952 176.801 161.977 176.972 161.977C177.943 161.977 178.515 161.067 178.715 160.161C178.943 159.251 178.801 158.345 178.401 158.345ZM178.743 158.37C178.715 158.37 178.715 158.516 178.801 158.903C179.115 159.58 179.258 159.821 179.286 159.821C179.344 159.821 179.229 159.459 179.086 159.094C178.943 158.732 178.801 158.37 178.743 158.37ZM177.458 156.902C177.344 156.902 177.2 157.576 177.2 159.341C177.658 158.005 177.601 156.902 177.458 156.902ZM149.258 158.028C149.629 158.538 149.886 158.735 150.029 158.735C150.286 158.735 150.315 158.244 150.2 157.75C150.115 157.261 149.915 156.77 149.686 156.77C149.515 156.77 149.343 157.099 149.258 158.028C149.372 156.885 149.143 156.504 148.858 156.504C148.286 156.504 147.572 157.977 149.258 158.028ZM72.343 156.532C71.8002 156.532 71.2003 157.034 71.0574 158.544C71.1717 158.547 71.286 158.55 71.4003 158.55C72.886 158.55 73.4001 158.045 73.4001 157.539C73.4001 157.034 72.8859 156.532 72.343 156.532ZM26.9714 155.398C26.9999 156.512 27.4287 157.09 28.2287 157.152C28.2001 156.038 27.7714 155.445 26.9714 155.398ZM140.915 154.418C140.886 154.418 141.2 154.884 142.258 156.276C142.372 156.243 140.943 154.418 140.915 154.418ZM133.943 155.325C133.086 155.325 130.143 155.429 132.686 155.429C134.258 155.35 134.372 155.325 133.943 155.325ZM45.7431 152.745C45.5717 152.745 45.4002 153.18 45.4002 153.618C45.4002 154.056 45.543 154.494 46.0001 154.494C46.0287 154.494 46.0573 154.491 46.0573 154.491C46.0573 153.18 45.9145 152.745 45.7431 152.745ZM54.3145 148.325C53.7431 148.325 53.8287 149.038 54.1715 149.751C54.543 150.466 55.1716 151.179 55.6573 151.179C56.0288 151.179 56.343 150.711 56.343 149.391C55.3144 148.617 54.686 148.325 54.3145 148.325ZM174.401 145.953C173.858 145.953 172.943 146.273 171.543 147.09C171.2 149.288 171.6 150.054 172.2 150.054C172.915 150.054 173.972 149.029 174.572 148.005C175.201 146.978 175.372 145.953 174.401 145.953ZM202.887 145.715C202.629 145.715 203.029 146.31 203.572 146.907C204.115 147.502 204.829 148.1 205.229 148.1C205.429 148.1 205.515 147.932 205.458 147.514C203.886 146.178 203.144 145.715 202.887 145.715ZM83.1431 146.391C79.286 146.391 80.8575 147.881 82.1432 147.881C82.7718 147.881 83.3431 147.508 83.1431 146.391ZM23.4571 143.247C22.7714 143.247 22.057 143.784 21.8856 144.32C21.7141 144.856 22.1141 145.392 23.6856 145.392C23.9999 145.392 24.3427 145.372 24.7427 145.324C24.7427 143.769 24.1143 143.247 23.4571 143.247ZM187.144 143.273C182.258 143.273 184.487 144.934 186.115 144.934C186.915 144.934 187.601 144.519 187.144 143.273ZM198.772 141.204C198.572 141.204 198.258 141.605 197.887 142.807C197.915 142.812 197.972 142.815 198.029 142.815C198.544 142.815 198.829 142.414 198.944 142.01C199.029 141.605 198.972 141.204 198.772 141.204ZM63.0287 138.532C61.9715 138.552 60.3717 139.961 60.7145 139.961C60.886 139.961 61.5715 139.604 63.0287 138.532ZM91.3718 138.656C90.8289 138.656 90.5144 138.717 91.1716 138.911C93.0001 138.911 93.1431 138.827 92.7145 138.754C92.4574 138.712 92.0288 138.672 91.6288 138.658C91.5431 138.656 91.4575 138.656 91.3718 138.656ZM94.1431 138.254C92.686 138.254 91.7431 138.498 91.6288 138.658C92.0288 138.672 92.4574 138.712 92.7145 138.754C93.286 138.689 94.0859 138.552 95.1717 138.291C94.8002 138.265 94.486 138.254 94.1431 138.254ZM111.458 133.488C111.458 134.285 114.429 135.697 114.915 135.697C115.229 135.697 114.543 135.133 111.458 133.488ZM65.686 129.943C65.5431 129.943 65.8001 130.393 66.9715 131.737H67.0001C67.4001 131.737 67.1431 131.288 66.7431 130.839C66.3431 130.393 65.8003 129.943 65.686 129.943ZM143.058 128.793C142.972 128.793 142.915 129.099 142.915 129.986C143.029 130.162 143.115 130.235 143.201 130.235C143.343 130.235 143.343 129.876 143.315 129.514C143.258 129.155 143.143 128.793 143.058 128.793ZM103.172 126.328C102.686 126.328 101.743 126.859 100.086 128.313C100.086 129.702 100.429 130.213 100.886 130.213C101.543 130.213 102.429 129.242 102.972 128.271C103.543 127.3 103.8 126.328 103.172 126.328ZM210.829 128.588C210.772 128.588 210.544 129.402 210.544 129.986C210.829 128.95 210.886 128.588 210.829 128.588ZM180.486 125.781C180.115 125.781 179.743 126.286 179.743 127.799C182.001 127.799 181.258 125.781 180.486 125.781ZM40.1142 125.495C39.7142 125.495 39.1716 125.891 38.9144 127.064C41.1716 126.719 40.8285 125.495 40.1142 125.495ZM163.801 119.446C163.658 119.446 163.458 119.455 163.229 119.472C163.144 120.016 163.315 120.286 163.801 120.286C164.115 120.286 164.543 120.159 165.143 119.907C163.486 119.907 164.915 119.446 163.801 119.446ZM201.001 115.228C197.658 117.31 197.315 118.079 197.943 118.079C198.829 118.079 201.487 116.687 201.001 115.228ZM197.515 117.279C196.229 117.661 196.029 117.802 196.229 117.802C196.515 117.802 197.515 117.549 197.515 117.279ZM78.8574 116.14C78.2574 116.14 78.086 116.39 78.1431 116.642C78.1717 116.895 78.4286 117.145 78.6572 117.145C78.8858 117.145 79.1145 116.898 79.1145 116.151C79.0287 116.143 78.9431 116.14 78.8574 116.14ZM51.4288 114.195C50.9431 114.195 50.4285 114.419 50.4571 115.093C53.0285 114.877 52.2859 114.195 51.4288 114.195ZM81.3431 110.886C79.1431 110.99 79.1146 111.04 79.6289 111.04C80.1718 111.04 81.3146 110.987 81.3431 110.886ZM162.315 107.358C162.172 107.358 162.029 107.79 161.972 108.222C161.915 108.652 161.972 109.084 162.258 109.084C162.343 109.084 162.458 109.047 162.6 108.96C162.6 107.762 162.458 107.358 162.315 107.358ZM212.458 105.536C211.858 105.536 211.229 107.203 213.087 107.203C213.087 105.954 212.772 105.536 212.458 105.536ZM102.943 104.787C102.286 104.787 101.6 104.843 101.6 105.011C105.629 105.011 104.286 104.787 102.943 104.787ZM186.286 101.494C186.229 101.494 186.144 101.5 186.087 101.511C186.029 102.477 186.001 103.369 186.629 103.369C186.744 103.369 186.886 103.336 187.058 103.265C187.144 102.207 186.972 101.494 186.286 101.494ZM15.7144 101.343C14.2858 101.343 17.6285 101.438 18.1143 101.438C18.3428 101.438 17.8572 101.416 15.7144 101.343ZM164.4 96.7342C161.658 96.7342 161.629 97.3937 162.544 97.3937C163.001 97.3937 163.686 97.2281 164.4 96.7342ZM70.1715 96.7342C68.5715 96.7342 69.2572 96.7566 69.8001 96.7566C70.0858 96.7566 70.2858 96.751 70.1715 96.7342ZM71.4575 93.8938C71.4289 93.8938 71.5144 94.2755 71.6287 94.6572C71.7144 95.0361 71.8573 95.4178 71.9716 95.4178C71.6287 94.2755 71.486 93.8938 71.4575 93.8938ZM204.801 93.0012C204.286 93.0012 203.686 93.265 203.686 94.0313C206.229 93.6776 205.629 93.0012 204.801 93.0012ZM65.8858 93.3464C65.4858 93.3464 64.7716 93.4643 64.2288 93.5794C63.6574 93.6945 63.2574 93.8123 63.5145 93.8123C63.7431 93.8123 64.5143 93.7169 66.1715 93.4447C66.1715 93.3745 66.0572 93.3464 65.8858 93.3464ZM111.657 93.3717C111.229 93.3717 111 93.4784 110.915 93.585C110.857 93.6917 110.943 93.7983 111.172 93.7983C111.372 93.7983 111.715 93.7001 112.143 93.4138C111.972 93.3857 111.8 93.3717 111.657 93.3717ZM96.5144 91.4715C95.9716 91.6427 94.229 92.4736 94.2861 92.4736C94.3433 92.4736 94.9144 92.2237 96.5144 91.4715ZM161.143 89.1504C161.086 89.1504 161.058 89.417 161.058 89.6864C161.058 89.9531 161.086 90.2197 161.143 90.2197C161.172 90.2197 161.229 90.0766 161.315 89.6808C161.229 89.2935 161.172 89.1504 161.143 89.1504ZM3.1428 87.0453C3.22852 89.0325 3.37139 89.6977 3.51424 89.6977C3.74282 89.6977 3.88566 87.3541 3.1428 87.0453ZM164.4 88.502C162.858 89.3216 162.543 89.6079 162.715 89.6079C162.972 89.6079 164.315 88.9595 164.4 88.502ZM147.115 85.4034C147.058 85.4034 147.115 85.9338 147.429 87.5225C147.458 87.5702 147.486 87.5926 147.515 87.5926C147.658 87.5926 147.572 87.0453 147.458 86.498C147.343 85.9507 147.172 85.4034 147.115 85.4034ZM30.9143 85.6363C30.9143 85.6363 30.7713 85.9423 30.4284 86.8601C30.5713 86.7478 30.9428 85.6363 30.9143 85.6363ZM184.743 83.5762C184.372 83.5762 184.744 84.247 187.058 86.1808C187.458 85.1311 185.258 83.5762 184.743 83.5762ZM170.201 80.2755C164.629 80.5337 169.715 82.4394 171.715 82.4394C172.772 82.4394 172.972 81.8978 170.201 80.2755ZM165.429 80.1463V80.9884C165.4 81.4094 165.429 81.8304 165.429 81.8304C165.429 81.8304 165.458 81.8192 165.458 81.7939C165.458 80.5589 165.429 80.1463 165.429 80.1463ZM176.315 79.3913C176.286 79.3913 176.286 79.4531 176.258 79.6047C176.286 80.6824 176.315 81.0473 176.344 81.0473C176.372 81.0473 176.401 80.6319 176.401 80.2193C176.401 79.8039 176.372 79.3913 176.315 79.3913ZM16.6571 74.7686C16.5999 74.7686 16.5426 74.7743 16.4855 74.7883C16.4855 76.652 16.6856 77.2751 16.9141 77.2751C17.1141 77.2751 17.3428 76.6464 17.3714 76.0205C17.3999 75.3946 17.2285 74.7686 16.6571 74.7686ZM139.515 71.5353C139.286 71.5353 139.058 72.5682 138.943 75.6724C140.201 75.5658 139.943 71.5353 139.515 71.5353ZM127.772 73.4663C126.315 73.4804 126.086 74.3533 126 75.3356C127.2 75.1476 127.743 74.4796 127.772 73.4663ZM183.029 72.3015C182.829 72.3015 181.515 73.7975 181.658 74.3476C182.858 72.818 183.143 72.3015 183.029 72.3015ZM113.543 72.0938C113.286 72.0938 113.029 72.4952 113.029 73.6993C114.6 73.6993 114.086 72.0938 113.543 72.0938ZM43.1716 71.7205C40.8287 71.7205 41.7145 72.8797 42.4859 72.8797C42.8859 72.8797 43.2287 72.5906 43.1716 71.7205ZM170.886 70.3284C170.858 70.3284 170.515 70.7859 169.572 72.1612V72.164C169.658 72.164 170.001 71.7065 170.315 71.2462C170.601 70.7859 170.886 70.3284 170.886 70.3284ZM160.658 62.9046C160.029 62.9046 158.829 65.15 160.686 65.15C161.115 63.4659 160.943 62.9046 160.658 62.9046ZM170.515 62.1692C170.486 62.1692 170.458 62.6969 170.429 63.2217C170.429 63.7494 170.458 64.2771 170.515 64.2771H170.543C170.543 62.6969 170.515 62.1692 170.515 62.1692ZM18.8286 56.9122C17.8857 56.9122 17.5998 58.4222 17.9141 58.4222C18.0569 58.4222 18.3714 58.0433 18.8286 56.9122ZM192.372 56.0786C191.629 56.0786 191.201 58.2257 193.401 58.2257C193.201 56.6147 192.744 56.0786 192.372 56.0786ZM43.4286 54.6387C43.1143 54.6387 42.3999 55.2225 41.1428 56.9122C41.3999 57.3641 41.6857 57.5437 41.9428 57.5437C42.5143 57.5437 43.0571 56.8168 43.3714 56.0926C43.7143 55.3657 43.8 54.6387 43.4286 54.6387ZM189.544 53.1905C189.258 53.1905 188.944 53.5497 188.944 54.6331C190.744 54.6331 190.144 53.1905 189.544 53.1905ZM42.4859 53.763C42.1145 53.763 41.5716 53.8164 40.7145 53.9511C40.7145 54.2654 41.0001 54.3749 41.4001 54.3749C41.8573 54.3749 42.4286 54.2233 42.7143 54.0689C43.0286 53.9174 43.0573 53.763 42.4859 53.763ZM175.8 52.6319C175.515 52.6319 175.286 53.0249 175.286 54.1925C175.601 54.3188 175.829 54.3749 176.001 54.3749C176.515 54.3749 176.6 53.937 176.486 53.502C176.372 53.067 176.058 52.6319 175.8 52.6319ZM67.7716 52.3176C67.2859 52.3176 66.8573 52.7274 67.0287 53.9511C67.0859 53.9539 67.1429 53.9539 67.2 53.9539C68.6 53.9539 69.0003 53.5441 68.9146 53.1372C68.8289 52.7274 68.2574 52.3176 67.7716 52.3176ZM140.943 48.652C140.743 48.652 140.515 48.6632 140.286 48.6856C139.629 50.6784 140 51.3465 140.6 51.3465C141.2 51.3465 142.029 50.6728 142.343 49.9992C142.658 49.3256 142.458 48.652 140.943 48.652ZM106.886 49.7915C106.8 49.7915 106.772 50.176 106.829 50.5577C106.886 50.9395 107 51.3212 107.2 51.3212C107.2 51.3212 107.229 51.3212 107.229 51.3184C107.057 50.1732 106.943 49.7915 106.886 49.7915ZM179.401 47.9054C178.743 47.9054 178.058 49.014 180.029 49.014C180.058 48.1832 179.743 47.9054 179.401 47.9054ZM29.5143 47.1897C28.8857 47.6696 28.9429 47.8296 29.2286 47.8296C29.8001 47.8296 31.2 47.1897 29.5143 47.1897ZM36.9428 45.9435C36.4857 45.9435 35.3427 46.3252 34.3713 46.7069C33.3999 47.0886 32.6001 47.4703 32.8287 47.4703C33.0573 47.4703 34.2287 47.1111 37.143 46.0473C37.143 45.9772 37.0571 45.9435 36.9428 45.9435ZM22.5998 41.0766C22.3713 41.0766 22.4286 41.5762 23.4857 42.8055C23.5429 41.7782 22.8856 41.0766 22.5998 41.0766ZM184.401 40.1279C184.201 40.1279 183.801 41.0289 184.201 41.927C184.601 40.6107 184.572 40.1279 184.401 40.1279ZM130.829 40.097C130.6 40.097 130.686 41.1159 131.343 41.1159C131.115 40.3525 130.943 40.097 130.829 40.097ZM169.572 35.3565C169.029 37.0938 169.772 37.672 170.686 37.672C172.515 37.672 175.086 35.3565 169.572 35.3565ZM46.9715 34.0429C46.6857 34.4106 46.9142 34.5313 47.2285 34.5313C47.8857 34.5313 48.8858 34.0429 46.9715 34.0429ZM94.743 28.2779C93.8573 28.8392 93.5431 29.8075 93.4002 30.9134C93.5145 30.9358 93.6002 30.9471 93.7145 30.9471C95.3145 30.9471 96.3716 28.3649 94.743 28.2779ZM48.3714 26.9054C47.8 26.9054 47.3428 27.3769 47.6286 28.7915C51.0286 28.7915 49.5143 26.9054 48.3714 26.9054ZM117.943 25.3168C118.115 25.8922 118.486 26.083 118.829 26.083C119.458 26.083 119.886 25.3168 117.943 25.3168ZM60.3145 23.9611V23.9639C61.1716 24.1772 61.4857 24.2474 61.5143 24.2474C61.5143 24.2474 61.2573 24.1772 60.9716 24.1042C60.6859 24.0341 60.4002 23.9611 60.3145 23.9611ZM62.8574 16.9583C63.086 18.4094 63.686 19.2037 63.9145 19.2037C64.1145 19.2037 63.9717 18.4936 62.8574 16.9583ZM120.658 11.7041C120.686 12.2682 123.486 13.7783 123.8 13.7783C123.972 13.7783 123.286 13.2534 120.658 11.7041ZM113.943 10.834C109.629 10.834 113.601 12.6892 115.029 12.6892C115.743 12.6892 115.829 12.2261 113.943 10.834ZM75.6574 5.8829C74.4003 5.8829 73.1715 6.22813 76.8858 6.22813C76.8858 5.96991 76.2574 5.8829 75.6574 5.8829ZM173.429 148.1C172.801 148.089 172.486 147.752 172.486 147.415C172.486 147.752 172.801 148.089 173.429 148.1ZM173.515 148.1C173.601 148.095 173.686 148.089 173.772 148.075V146.759V148.075C173.686 148.089 173.601 148.095 173.515 148.1ZM173.772 146.759C173.743 146.756 173.715 146.753 173.686 146.75C173.715 146.753 173.743 146.756 173.772 146.759ZM173.572 146.736C173.544 146.736 173.515 146.733 173.486 146.733C173.515 146.733 173.544 146.736 173.572 146.736ZM173.429 146.733H173.458H173.429Z" fill="url(#paint0_linear_4165_264236)" fill-opacity="0.08"/>
<defs>
<linearGradient id="paint0_linear_4165_264236" x1="141.452" y1="222.849" x2="35.0118" y2="-23.6666" gradientUnits="userSpaceOnUse">
<stop stop-color="white" stop-opacity="0.6"/>
<stop offset="1" stop-color="white" stop-opacity="0.9"/>
</linearGradient>
</defs>
</svg>
