<svg width="58" height="111" viewBox="0 0 58 111" fill="none" xmlns="http://www.w3.org/2000/svg">
<path d="M1.70925 108.903C2.20925 108.903 2.60925 109.303 2.60925 109.803C2.60925 110.303 2.20925 110.703 1.70925 110.703C1.20925 110.703 0.80925 110.303 0.80925 109.803C0.80925 109.303 1.20925 108.903 1.70925 108.903Z" fill="white"/>
<path d="M1.70925 100.503C2.20925 100.503 2.60925 100.903 2.60925 101.403C2.60925 101.903 2.20925 102.303 1.70925 102.303C1.20925 102.303 0.80925 101.903 0.80925 101.403C0.80925 100.903 1.20925 100.503 1.70925 100.503Z" fill="white"/>
<path d="M1.70925 92.2029C2.20925 92.2029 2.60925 92.6029 2.60925 93.1029C2.60925 93.6029 2.20925 94.0029 1.70925 94.0029C1.20925 94.0029 0.80925 93.6029 0.80925 93.1029C0.80925 92.6029 1.20925 92.2029 1.70925 92.2029Z" fill="white"/>
<path d="M1.70925 83.803C2.20925 83.803 2.60925 84.203 2.60925 84.703C2.60925 85.203 2.20925 85.603 1.70925 85.603C1.20925 85.603 0.80925 85.203 0.80925 84.703C0.80925 84.203 1.20925 83.803 1.70925 83.803Z" fill="white"/>
<path d="M1.70925 75.5029C2.20925 75.5029 2.60925 75.9029 2.60925 76.4029C2.60925 76.9029 2.20925 77.3029 1.70925 77.3029C1.20925 77.3029 0.80925 76.9029 0.80925 76.4029C0.80925 75.9029 1.20925 75.5029 1.70925 75.5029Z" fill="white"/>
<path d="M0.80925 68.003C0.80925 68.5001 1.2122 68.903 1.70925 68.903C2.20631 68.903 2.60925 68.5001 2.60925 68.003C2.60925 67.506 2.20631 67.103 1.70925 67.103C1.2122 67.103 0.80925 67.506 0.80925 68.003Z" fill="white"/>
<path d="M1.70925 58.803C2.20925 58.803 2.60925 59.203 2.60925 59.703C2.60925 60.203 2.20925 60.603 1.70925 60.603C1.20925 60.603 0.80925 60.203 0.80925 59.703C0.80925 59.203 1.20925 58.803 1.70925 58.803Z" fill="white"/>
<path d="M1.70925 50.4031C2.20925 50.4031 2.60925 50.8031 2.60925 51.3031C2.60925 51.8031 2.20925 52.2031 1.70925 52.2031C1.20925 52.2031 0.80925 51.8031 0.80925 51.3031C0.80925 50.8031 1.20925 50.4031 1.70925 50.4031Z" fill="white"/>
<path d="M1.70925 42.103C2.20925 42.103 2.60925 42.503 2.60925 43.003C2.60925 43.503 2.20925 43.903 1.70925 43.903C1.20925 43.903 0.80925 43.503 0.80925 43.003C0.80925 42.503 1.20925 42.103 1.70925 42.103Z" fill="white"/>
<path d="M1.70925 33.7029C2.20925 33.7029 2.60925 34.1029 2.60925 34.6029C2.60925 35.1029 2.20925 35.5029 1.70925 35.5029C1.20925 35.5029 0.80925 35.1029 0.80925 34.6029C0.80925 34.1029 1.20925 33.7029 1.70925 33.7029Z" fill="white"/>
<path d="M1.70925 25.4031C2.20925 25.4031 2.60925 25.8031 2.60925 26.3031C2.60925 26.8031 2.20925 27.2031 1.70925 27.2031C1.20925 27.2031 0.80925 26.8031 0.80925 26.3031C0.80925 25.8031 1.20925 25.4031 1.70925 25.4031Z" fill="white"/>
<path d="M1.70925 17.0029C2.20925 17.0029 2.60925 17.4029 2.60925 17.9029C2.60925 18.4029 2.20925 18.8029 1.70925 18.8029C1.20925 18.8029 0.80925 18.4029 0.80925 17.9029C0.80925 17.4029 1.20925 17.0029 1.70925 17.0029Z" fill="white"/>
<path d="M1.70925 8.70288C2.20925 8.70288 2.60925 9.10287 2.60925 9.60287C2.60925 10.1029 2.20925 10.5029 1.70925 10.5029C1.20925 10.5029 0.80925 10.1029 0.80925 9.60287C0.80925 9.10287 1.20925 8.70288 1.70925 8.70288Z" fill="white"/>
<path d="M1.70925 0.302978C2.20925 0.302978 2.60925 0.702972 2.60925 1.20297C2.60925 1.70297 2.20925 2.10297 1.70925 2.10297C1.20925 2.10297 0.80925 1.70297 0.80925 1.20297C0.80925 0.702972 1.20925 0.302978 1.70925 0.302978Z" fill="white"/>
<path d="M8.50918 108.903C9.00918 108.903 9.40918 109.303 9.40918 109.803C9.40918 110.303 9.00918 110.703 8.50918 110.703C8.00918 110.703 7.60918 110.303 7.60918 109.803C7.60918 109.303 8.00918 108.903 8.50918 108.903Z" fill="white"/>
<path d="M8.50918 100.503C9.00918 100.503 9.40918 100.903 9.40918 101.403C9.40918 101.903 9.00918 102.303 8.50918 102.303C8.00918 102.303 7.60918 101.903 7.60918 101.403C7.60918 100.903 8.00918 100.503 8.50918 100.503Z" fill="white"/>
<path d="M8.50918 92.2029C9.00918 92.2029 9.40918 92.6029 9.40918 93.1029C9.40918 93.6029 9.00918 94.0029 8.50918 94.0029C8.00918 94.0029 7.60918 93.6029 7.60918 93.1029C7.60918 92.6029 8.00918 92.2029 8.50918 92.2029Z" fill="white"/>
<path d="M8.50918 83.803C9.00918 83.803 9.40918 84.203 9.40918 84.703C9.40918 85.203 9.00918 85.603 8.50918 85.603C8.00918 85.603 7.60918 85.203 7.60918 84.703C7.60918 84.203 8.00918 83.803 8.50918 83.803Z" fill="white"/>
<path d="M8.50918 75.5029C9.00918 75.5029 9.40918 75.9029 9.40918 76.4029C9.40918 76.9029 9.00918 77.3029 8.50918 77.3029C8.00918 77.3029 7.60918 76.9029 7.60918 76.4029C7.60918 75.9029 8.00918 75.5029 8.50918 75.5029Z" fill="white"/>
<path d="M8.50918 67.103C9.00918 67.103 9.40918 67.503 9.40918 68.003C9.40918 68.503 9.00918 68.903 8.50918 68.903C8.00918 68.903 7.60918 68.503 7.60918 68.003C7.60918 67.503 8.00918 67.103 8.50918 67.103Z" fill="white"/>
<path d="M8.50918 58.803C9.00918 58.803 9.40918 59.203 9.40918 59.703C9.40918 60.203 9.00918 60.603 8.50918 60.603C8.00918 60.603 7.60918 60.203 7.60918 59.703C7.60918 59.203 8.00918 58.803 8.50918 58.803Z" fill="white"/>
<path d="M8.50918 50.4031C9.00918 50.4031 9.40918 50.8031 9.40918 51.3031C9.40918 51.8031 9.00918 52.2031 8.50918 52.2031C8.00918 52.2031 7.60918 51.8031 7.60918 51.3031C7.60918 50.8031 8.00918 50.4031 8.50918 50.4031Z" fill="white"/>
<path d="M8.50918 42.103C9.00918 42.103 9.40918 42.503 9.40918 43.003C9.40918 43.503 9.00918 43.903 8.50918 43.903C8.00918 43.903 7.60918 43.503 7.60918 43.003C7.60918 42.503 8.00918 42.103 8.50918 42.103Z" fill="white"/>
<path d="M8.50918 33.7029C9.00918 33.7029 9.40918 34.1029 9.40918 34.6029C9.40918 35.1029 9.00918 35.5029 8.50918 35.5029C8.00918 35.5029 7.60918 35.1029 7.60918 34.6029C7.60918 34.1029 8.00918 33.7029 8.50918 33.7029Z" fill="white"/>
<path d="M8.50918 25.4031C9.00918 25.4031 9.40918 25.8031 9.40918 26.3031C9.40918 26.8031 9.00918 27.2031 8.50918 27.2031C8.00918 27.2031 7.60918 26.8031 7.60918 26.3031C7.60918 25.8031 8.00918 25.4031 8.50918 25.4031Z" fill="white"/>
<path d="M8.50918 17.0029C9.00918 17.0029 9.40918 17.4029 9.40918 17.9029C9.40918 18.4029 9.00918 18.8029 8.50918 18.8029C8.00918 18.8029 7.60918 18.4029 7.60918 17.9029C7.60918 17.4029 8.00918 17.0029 8.50918 17.0029Z" fill="white"/>
<path d="M8.50918 8.70288C9.00918 8.70288 9.40918 9.10287 9.40918 9.60287C9.40918 10.1029 9.00918 10.5029 8.50918 10.5029C8.00918 10.5029 7.60918 10.1029 7.60918 9.60287C7.60918 9.10287 8.00918 8.70288 8.50918 8.70288Z" fill="white"/>
<path d="M8.50918 0.302978C9.00918 0.302978 9.40918 0.702972 9.40918 1.20297C9.40918 1.70297 9.00918 2.10297 8.50918 2.10297C8.00918 2.10297 7.60918 1.70297 7.60918 1.20297C7.60918 0.702972 8.00918 0.302978 8.50918 0.302978Z" fill="white"/>
<path d="M15.4092 108.903C15.9092 108.903 16.3092 109.303 16.3092 109.803C16.3092 110.303 15.9092 110.703 15.4092 110.703C14.9092 110.703 14.5092 110.303 14.5092 109.803C14.5092 109.303 14.9092 108.903 15.4092 108.903Z" fill="white"/>
<path d="M15.4092 100.503C15.9092 100.503 16.3092 100.903 16.3092 101.403C16.3092 101.903 15.9092 102.303 15.4092 102.303C14.9092 102.303 14.5092 101.903 14.5092 101.403C14.5092 100.903 14.9092 100.503 15.4092 100.503Z" fill="white"/>
<path d="M15.4092 92.2029C15.9092 92.2029 16.3092 92.6029 16.3092 93.1029C16.3092 93.6029 15.9092 94.0029 15.4092 94.0029C14.9092 94.0029 14.5092 93.6029 14.5092 93.1029C14.5092 92.6029 14.9092 92.2029 15.4092 92.2029Z" fill="white"/>
<path d="M15.4092 83.803C15.9092 83.803 16.3092 84.203 16.3092 84.703C16.3092 85.203 15.9092 85.603 15.4092 85.603C14.9092 85.603 14.5092 85.203 14.5092 84.703C14.5092 84.203 14.9092 83.803 15.4092 83.803Z" fill="white"/>
<path d="M15.4092 75.5029C15.9092 75.5029 16.3092 75.9029 16.3092 76.4029C16.3092 76.9029 15.9092 77.3029 15.4092 77.3029C14.9092 77.3029 14.5092 76.9029 14.5092 76.4029C14.5092 75.9029 14.9092 75.5029 15.4092 75.5029Z" fill="white"/>
<path d="M15.4092 67.103C15.9092 67.103 16.3092 67.503 16.3092 68.003C16.3092 68.503 15.9092 68.903 15.4092 68.903C14.9092 68.903 14.5092 68.503 14.5092 68.003C14.5092 67.503 14.9092 67.103 15.4092 67.103Z" fill="white"/>
<path d="M15.4092 58.803C15.9092 58.803 16.3092 59.203 16.3092 59.703C16.3092 60.203 15.9092 60.603 15.4092 60.603C14.9092 60.603 14.5092 60.203 14.5092 59.703C14.5092 59.203 14.9092 58.803 15.4092 58.803Z" fill="white"/>
<path d="M15.4092 50.4031C15.9092 50.4031 16.3092 50.8031 16.3092 51.3031C16.3092 51.8031 15.9092 52.2031 15.4092 52.2031C14.9092 52.2031 14.5092 51.8031 14.5092 51.3031C14.5092 50.8031 14.9092 50.4031 15.4092 50.4031Z" fill="white"/>
<path d="M15.4092 42.103C15.9092 42.103 16.3092 42.503 16.3092 43.003C16.3092 43.503 15.9092 43.903 15.4092 43.903C14.9092 43.903 14.5092 43.503 14.5092 43.003C14.5092 42.503 14.9092 42.103 15.4092 42.103Z" fill="white"/>
<path d="M15.4092 33.7029C15.9092 33.7029 16.3092 34.1029 16.3092 34.6029C16.3092 35.1029 15.9092 35.5029 15.4092 35.5029C14.9092 35.5029 14.5092 35.1029 14.5092 34.6029C14.5092 34.1029 14.9092 33.7029 15.4092 33.7029Z" fill="white"/>
<path d="M15.4092 25.4031C15.9092 25.4031 16.3092 25.8031 16.3092 26.3031C16.3092 26.8031 15.9092 27.2031 15.4092 27.2031C14.9092 27.2031 14.5092 26.8031 14.5092 26.3031C14.5092 25.8031 14.9092 25.4031 15.4092 25.4031Z" fill="white"/>
<path d="M15.4092 17.0029C15.9092 17.0029 16.3092 17.4029 16.3092 17.9029C16.3092 18.4029 15.9092 18.8029 15.4092 18.8029C14.9092 18.8029 14.5092 18.4029 14.5092 17.9029C14.5092 17.4029 14.9092 17.0029 15.4092 17.0029Z" fill="white"/>
<path d="M15.4092 8.70288C15.9092 8.70288 16.3092 9.10287 16.3092 9.60287C16.3092 10.1029 15.9092 10.5029 15.4092 10.5029C14.9092 10.5029 14.5092 10.1029 14.5092 9.60287C14.5092 9.10287 14.9092 8.70288 15.4092 8.70288Z" fill="white"/>
<path d="M15.4092 0.302978C15.9092 0.302978 16.3092 0.702972 16.3092 1.20297C16.3092 1.70297 15.9092 2.10297 15.4092 2.10297C14.9092 2.10297 14.5092 1.70297 14.5092 1.20297C14.5092 0.702972 14.9092 0.302978 15.4092 0.302978Z" fill="white"/>
<path d="M22.2093 108.903C22.7093 108.903 23.1093 109.303 23.1093 109.803C23.1093 110.303 22.7093 110.703 22.2093 110.703C21.7093 110.703 21.3093 110.303 21.3093 109.803C21.3093 109.303 21.7093 108.903 22.2093 108.903Z" fill="white"/>
<path d="M22.2093 100.503C22.7093 100.503 23.1093 100.903 23.1093 101.403C23.1093 101.903 22.7093 102.303 22.2093 102.303C21.7093 102.303 21.3093 101.903 21.3093 101.403C21.3093 100.903 21.7093 100.503 22.2093 100.503Z" fill="white"/>
<path d="M22.2093 92.2029C22.7093 92.2029 23.1093 92.6029 23.1093 93.1029C23.1093 93.6029 22.7093 94.0029 22.2093 94.0029C21.7093 94.0029 21.3093 93.6029 21.3093 93.1029C21.3093 92.6029 21.7093 92.2029 22.2093 92.2029Z" fill="white"/>
<path d="M22.2093 83.803C22.7093 83.803 23.1093 84.203 23.1093 84.703C23.1093 85.203 22.7093 85.603 22.2093 85.603C21.7093 85.603 21.3093 85.203 21.3093 84.703C21.3093 84.203 21.7093 83.803 22.2093 83.803Z" fill="white"/>
<path d="M22.2093 75.5029C22.7093 75.5029 23.1093 75.9029 23.1093 76.4029C23.1093 76.9029 22.7093 77.3029 22.2093 77.3029C21.7093 77.3029 21.3093 76.9029 21.3093 76.4029C21.3093 75.9029 21.7093 75.5029 22.2093 75.5029Z" fill="white"/>
<path d="M22.2093 67.103C22.7093 67.103 23.1093 67.503 23.1093 68.003C23.1093 68.503 22.7093 68.903 22.2093 68.903C21.7093 68.903 21.3093 68.503 21.3093 68.003C21.3093 67.503 21.7093 67.103 22.2093 67.103Z" fill="white"/>
<path d="M22.2093 58.803C22.7093 58.803 23.1093 59.203 23.1093 59.703C23.1093 60.203 22.7093 60.603 22.2093 60.603C21.7093 60.603 21.3093 60.203 21.3093 59.703C21.3093 59.203 21.7093 58.803 22.2093 58.803Z" fill="white"/>
<path d="M22.2093 50.4031C22.7093 50.4031 23.1093 50.8031 23.1093 51.3031C23.1093 51.8031 22.7093 52.2031 22.2093 52.2031C21.7093 52.2031 21.3093 51.8031 21.3093 51.3031C21.3093 50.8031 21.7093 50.4031 22.2093 50.4031Z" fill="white"/>
<path d="M22.2093 42.103C22.7093 42.103 23.1093 42.503 23.1093 43.003C23.1093 43.503 22.7093 43.903 22.2093 43.903C21.7093 43.903 21.3093 43.503 21.3093 43.003C21.3093 42.503 21.7093 42.103 22.2093 42.103Z" fill="white"/>
<path d="M22.2093 33.7029C22.7093 33.7029 23.1093 34.1029 23.1093 34.6029C23.1093 35.1029 22.7093 35.5029 22.2093 35.5029C21.7093 35.5029 21.3093 35.1029 21.3093 34.6029C21.3093 34.1029 21.7093 33.7029 22.2093 33.7029Z" fill="white"/>
<path d="M22.2093 25.4031C22.7093 25.4031 23.1093 25.8031 23.1093 26.3031C23.1093 26.8031 22.7093 27.2031 22.2093 27.2031C21.7093 27.2031 21.3093 26.8031 21.3093 26.3031C21.3093 25.8031 21.7093 25.4031 22.2093 25.4031Z" fill="white"/>
<path d="M22.2093 17.0029C22.7093 17.0029 23.1093 17.4029 23.1093 17.9029C23.1093 18.4029 22.7093 18.8029 22.2093 18.8029C21.7093 18.8029 21.3093 18.4029 21.3093 17.9029C21.3093 17.4029 21.7093 17.0029 22.2093 17.0029Z" fill="white"/>
<path d="M22.2093 8.70288C22.7093 8.70288 23.1093 9.10287 23.1093 9.60287C23.1093 10.1029 22.7093 10.5029 22.2093 10.5029C21.7093 10.5029 21.3093 10.1029 21.3093 9.60287C21.3093 9.10287 21.7093 8.70288 22.2093 8.70288Z" fill="white"/>
<path d="M22.2093 0.302978C22.7093 0.302978 23.1093 0.702972 23.1093 1.20297C23.1093 1.70297 22.7093 2.10297 22.2093 2.10297C21.7093 2.10297 21.3093 1.70297 21.3093 1.20297C21.3093 0.702972 21.7093 0.302978 22.2093 0.302978Z" fill="white"/>
<path d="M29.1092 108.903C29.6092 108.903 30.0092 109.303 30.0092 109.803C30.0092 110.303 29.6092 110.703 29.1092 110.703C28.6092 110.703 28.2092 110.303 28.2092 109.803C28.2092 109.303 28.6092 108.903 29.1092 108.903Z" fill="white"/>
<path d="M29.1092 100.503C29.6092 100.503 30.0092 100.903 30.0092 101.403C30.0092 101.903 29.6092 102.303 29.1092 102.303C28.6092 102.303 28.2092 101.903 28.2092 101.403C28.2092 100.903 28.6092 100.503 29.1092 100.503Z" fill="white"/>
<path d="M29.1092 92.2029C29.6092 92.2029 30.0092 92.6029 30.0092 93.1029C30.0092 93.6029 29.6092 94.0029 29.1092 94.0029C28.6092 94.0029 28.2092 93.6029 28.2092 93.1029C28.2092 92.6029 28.6092 92.2029 29.1092 92.2029Z" fill="white"/>
<path d="M29.1092 83.803C29.6092 83.803 30.0092 84.203 30.0092 84.703C30.0092 85.203 29.6092 85.603 29.1092 85.603C28.6092 85.603 28.2092 85.203 28.2092 84.703C28.2092 84.203 28.6092 83.803 29.1092 83.803Z" fill="white"/>
<path d="M29.1092 75.5029C29.6092 75.5029 30.0092 75.9029 30.0092 76.4029C30.0092 76.9029 29.6092 77.3029 29.1092 77.3029C28.6092 77.3029 28.2092 76.9029 28.2092 76.4029C28.2092 75.9029 28.6092 75.5029 29.1092 75.5029Z" fill="white"/>
<path d="M29.1092 67.103C29.6092 67.103 30.0092 67.503 30.0092 68.003C30.0092 68.503 29.6092 68.903 29.1092 68.903C28.6092 68.903 28.2092 68.503 28.2092 68.003C28.2092 67.503 28.6092 67.103 29.1092 67.103Z" fill="white"/>
<path d="M29.1092 58.803C29.6092 58.803 30.0092 59.203 30.0092 59.703C30.0092 60.203 29.6092 60.603 29.1092 60.603C28.6092 60.603 28.2092 60.203 28.2092 59.703C28.2092 59.203 28.6092 58.803 29.1092 58.803Z" fill="white"/>
<path d="M29.1092 50.4031C29.6092 50.4031 30.0092 50.8031 30.0092 51.3031C30.0092 51.8031 29.6092 52.2031 29.1092 52.2031C28.6092 52.2031 28.2092 51.8031 28.2092 51.3031C28.2092 50.8031 28.6092 50.4031 29.1092 50.4031Z" fill="white"/>
<path d="M29.1092 42.103C29.6092 42.103 30.0092 42.503 30.0092 43.003C30.0092 43.503 29.6092 43.903 29.1092 43.903C28.6092 43.903 28.2092 43.503 28.2092 43.003C28.2092 42.503 28.6092 42.103 29.1092 42.103Z" fill="white"/>
<path d="M29.1092 33.7029C29.6092 33.7029 30.0092 34.1029 30.0092 34.6029C30.0092 35.1029 29.6092 35.5029 29.1092 35.5029C28.6092 35.5029 28.2092 35.1029 28.2092 34.6029C28.2092 34.1029 28.6092 33.7029 29.1092 33.7029Z" fill="white"/>
<path d="M29.1092 25.4031C29.6092 25.4031 30.0092 25.8031 30.0092 26.3031C30.0092 26.8031 29.6092 27.2031 29.1092 27.2031C28.6092 27.2031 28.2092 26.8031 28.2092 26.3031C28.2092 25.8031 28.6092 25.4031 29.1092 25.4031Z" fill="white"/>
<path d="M29.1092 17.0029C29.6092 17.0029 30.0092 17.4029 30.0092 17.9029C30.0092 18.4029 29.6092 18.8029 29.1092 18.8029C28.6092 18.8029 28.2092 18.4029 28.2092 17.9029C28.2092 17.4029 28.6092 17.0029 29.1092 17.0029Z" fill="white"/>
<path d="M29.1092 8.70288C29.6092 8.70288 30.0092 9.10287 30.0092 9.60287C30.0092 10.1029 29.6092 10.5029 29.1092 10.5029C28.6092 10.5029 28.2092 10.1029 28.2092 9.60287C28.2092 9.10287 28.6092 8.70288 29.1092 8.70288Z" fill="white"/>
<path d="M29.1092 0.302978C29.6092 0.302978 30.0092 0.702972 30.0092 1.20297C30.0092 1.70297 29.6092 2.10297 29.1092 2.10297C28.6092 2.10297 28.2092 1.70297 28.2092 1.20297C28.2092 0.702972 28.6092 0.302978 29.1092 0.302978Z" fill="white"/>
<path d="M35.9092 108.903C36.4092 108.903 36.8092 109.303 36.8092 109.803C36.8092 110.303 36.4092 110.703 35.9092 110.703C35.4092 110.703 35.0092 110.303 35.0092 109.803C35.0092 109.303 35.4092 108.903 35.9092 108.903Z" fill="white"/>
<path d="M35.9092 100.503C36.4092 100.503 36.8092 100.903 36.8092 101.403C36.8092 101.903 36.4092 102.303 35.9092 102.303C35.4092 102.303 35.0092 101.903 35.0092 101.403C35.0092 100.903 35.4092 100.503 35.9092 100.503Z" fill="white"/>
<path d="M35.9092 92.2029C36.4092 92.2029 36.8092 92.6029 36.8092 93.1029C36.8092 93.6029 36.4092 94.0029 35.9092 94.0029C35.4092 94.0029 35.0092 93.6029 35.0092 93.1029C35.0092 92.6029 35.4092 92.2029 35.9092 92.2029Z" fill="white"/>
<path d="M35.9092 83.803C36.4092 83.803 36.8092 84.203 36.8092 84.703C36.8092 85.203 36.4092 85.603 35.9092 85.603C35.4092 85.603 35.0092 85.203 35.0092 84.703C35.0092 84.203 35.4092 83.803 35.9092 83.803Z" fill="white"/>
<path d="M35.9092 75.5029C36.4092 75.5029 36.8092 75.9029 36.8092 76.4029C36.8092 76.9029 36.4092 77.3029 35.9092 77.3029C35.4092 77.3029 35.0092 76.9029 35.0092 76.4029C35.0092 75.9029 35.4092 75.5029 35.9092 75.5029Z" fill="white"/>
<path d="M35.9092 67.103C36.4092 67.103 36.8092 67.503 36.8092 68.003C36.8092 68.503 36.4092 68.903 35.9092 68.903C35.4092 68.903 35.0092 68.503 35.0092 68.003C35.0092 67.503 35.4092 67.103 35.9092 67.103Z" fill="white"/>
<path d="M35.9092 58.803C36.4092 58.803 36.8092 59.203 36.8092 59.703C36.8092 60.203 36.4092 60.603 35.9092 60.603C35.4092 60.603 35.0092 60.203 35.0092 59.703C35.0092 59.203 35.4092 58.803 35.9092 58.803Z" fill="white"/>
<path d="M35.9092 50.4031C36.4092 50.4031 36.8092 50.8031 36.8092 51.3031C36.8092 51.8031 36.4092 52.2031 35.9092 52.2031C35.4092 52.2031 35.0092 51.8031 35.0092 51.3031C35.0092 50.8031 35.4092 50.4031 35.9092 50.4031Z" fill="white"/>
<path d="M35.9092 42.103C36.4092 42.103 36.8092 42.503 36.8092 43.003C36.8092 43.503 36.4092 43.903 35.9092 43.903C35.4092 43.903 35.0092 43.503 35.0092 43.003C35.0092 42.503 35.4092 42.103 35.9092 42.103Z" fill="white"/>
<path d="M35.9092 33.7029C36.4092 33.7029 36.8092 34.1029 36.8092 34.6029C36.8092 35.1029 36.4092 35.5029 35.9092 35.5029C35.4092 35.5029 35.0092 35.1029 35.0092 34.6029C35.0092 34.1029 35.4092 33.7029 35.9092 33.7029Z" fill="white"/>
<path d="M35.9092 25.4031C36.4092 25.4031 36.8092 25.8031 36.8092 26.3031C36.8092 26.8031 36.4092 27.2031 35.9092 27.2031C35.4092 27.2031 35.0092 26.8031 35.0092 26.3031C35.0092 25.8031 35.4092 25.4031 35.9092 25.4031Z" fill="white"/>
<path d="M35.9092 17.0029C36.4092 17.0029 36.8092 17.4029 36.8092 17.9029C36.8092 18.4029 36.4092 18.8029 35.9092 18.8029C35.4092 18.8029 35.0092 18.4029 35.0092 17.9029C35.0092 17.4029 35.4092 17.0029 35.9092 17.0029Z" fill="white"/>
<path d="M35.9092 8.70288C36.4092 8.70288 36.8092 9.10287 36.8092 9.60287C36.8092 10.1029 36.4092 10.5029 35.9092 10.5029C35.4092 10.5029 35.0092 10.1029 35.0092 9.60287C35.0092 9.10287 35.4092 8.70288 35.9092 8.70288Z" fill="white"/>
<path d="M35.9092 0.302978C36.4092 0.302978 36.8092 0.702972 36.8092 1.20297C36.8092 1.70297 36.4092 2.10297 35.9092 2.10297C35.4092 2.10297 35.0092 1.70297 35.0092 1.20297C35.0092 0.702972 35.4092 0.302978 35.9092 0.302978Z" fill="white"/>
<path d="M42.8092 108.903C43.3092 108.903 43.7092 109.303 43.7092 109.803C43.7092 110.303 43.3092 110.703 42.8092 110.703C42.3092 110.703 41.9092 110.303 41.9092 109.803C41.9092 109.303 42.3092 108.903 42.8092 108.903Z" fill="white"/>
<path d="M42.8092 100.503C43.3092 100.503 43.7092 100.903 43.7092 101.403C43.7092 101.903 43.3092 102.303 42.8092 102.303C42.3092 102.303 41.9092 101.903 41.9092 101.403C41.9092 100.903 42.3092 100.503 42.8092 100.503Z" fill="white"/>
<path d="M42.8092 92.2029C43.3092 92.2029 43.7092 92.6029 43.7092 93.1029C43.7092 93.6029 43.3092 94.0029 42.8092 94.0029C42.3092 94.0029 41.9092 93.6029 41.9092 93.1029C41.9092 92.6029 42.3092 92.2029 42.8092 92.2029Z" fill="white"/>
<path d="M42.8092 83.803C43.3092 83.803 43.7092 84.203 43.7092 84.703C43.7092 85.203 43.3092 85.603 42.8092 85.603C42.3092 85.603 41.9092 85.203 41.9092 84.703C41.9092 84.203 42.3092 83.803 42.8092 83.803Z" fill="white"/>
<path d="M42.8092 75.5029C43.3092 75.5029 43.7092 75.9029 43.7092 76.4029C43.7092 76.9029 43.3092 77.3029 42.8092 77.3029C42.3092 77.3029 41.9092 76.9029 41.9092 76.4029C41.9092 75.9029 42.3092 75.5029 42.8092 75.5029Z" fill="white"/>
<path d="M42.8092 67.103C43.3092 67.103 43.7092 67.503 43.7092 68.003C43.7092 68.503 43.3092 68.903 42.8092 68.903C42.3092 68.903 41.9092 68.503 41.9092 68.003C41.9092 67.503 42.3092 67.103 42.8092 67.103Z" fill="white"/>
<path d="M42.8092 58.803C43.3092 58.803 43.7092 59.203 43.7092 59.703C43.7092 60.203 43.3092 60.603 42.8092 60.603C42.3092 60.603 41.9092 60.203 41.9092 59.703C41.9092 59.203 42.3092 58.803 42.8092 58.803Z" fill="white"/>
<path d="M42.8092 50.4031C43.3092 50.4031 43.7092 50.8031 43.7092 51.3031C43.7092 51.8031 43.3092 52.2031 42.8092 52.2031C42.3092 52.2031 41.9092 51.8031 41.9092 51.3031C41.9092 50.8031 42.3092 50.4031 42.8092 50.4031Z" fill="white"/>
<path d="M42.8092 42.103C43.3092 42.103 43.7092 42.503 43.7092 43.003C43.7092 43.503 43.3092 43.903 42.8092 43.903C42.3092 43.903 41.9092 43.503 41.9092 43.003C41.9092 42.503 42.3092 42.103 42.8092 42.103Z" fill="white"/>
<path d="M42.8092 33.7029C43.3092 33.7029 43.7092 34.1029 43.7092 34.6029C43.7092 35.1029 43.3092 35.5029 42.8092 35.5029C42.3092 35.5029 41.9092 35.1029 41.9092 34.6029C41.9092 34.1029 42.3092 33.7029 42.8092 33.7029Z" fill="white"/>
<path d="M42.8092 25.4031C43.3092 25.4031 43.7092 25.8031 43.7092 26.3031C43.7092 26.8031 43.3092 27.2031 42.8092 27.2031C42.3092 27.2031 41.9092 26.8031 41.9092 26.3031C41.9092 25.8031 42.3092 25.4031 42.8092 25.4031Z" fill="white"/>
<path d="M42.8092 17.0029C43.3092 17.0029 43.7092 17.4029 43.7092 17.9029C43.7092 18.4029 43.3092 18.8029 42.8092 18.8029C42.3092 18.8029 41.9092 18.4029 41.9092 17.9029C41.9092 17.4029 42.3092 17.0029 42.8092 17.0029Z" fill="white"/>
<path d="M42.8092 8.70288C43.3092 8.70288 43.7092 9.10287 43.7092 9.60287C43.7092 10.1029 43.3092 10.5029 42.8092 10.5029C42.3092 10.5029 41.9092 10.1029 41.9092 9.60287C41.9092 9.10287 42.3092 8.70288 42.8092 8.70288Z" fill="white"/>
<path d="M42.8092 0.302978C43.3092 0.302978 43.7092 0.702972 43.7092 1.20297C43.7092 1.70297 43.3092 2.10297 42.8092 2.10297C42.3092 2.10297 41.9092 1.70297 41.9092 1.20297C41.9092 0.702972 42.3092 0.302978 42.8092 0.302978Z" fill="white"/>
<path d="M49.6092 108.903C50.1092 108.903 50.5092 109.303 50.5092 109.803C50.5092 110.303 50.1092 110.703 49.6092 110.703C49.1092 110.703 48.7092 110.303 48.7092 109.803C48.7092 109.303 49.1092 108.903 49.6092 108.903Z" fill="white"/>
<path d="M49.6092 100.503C50.1092 100.503 50.5092 100.903 50.5092 101.403C50.5092 101.903 50.1092 102.303 49.6092 102.303C49.1092 102.303 48.7092 101.903 48.7092 101.403C48.7092 100.903 49.1092 100.503 49.6092 100.503Z" fill="white"/>
<path d="M49.6092 92.2029C50.1092 92.2029 50.5092 92.6029 50.5092 93.1029C50.5092 93.6029 50.1092 94.0029 49.6092 94.0029C49.1092 94.0029 48.7092 93.6029 48.7092 93.1029C48.7092 92.6029 49.1092 92.2029 49.6092 92.2029Z" fill="white"/>
<path d="M49.6092 83.803C50.1092 83.803 50.5092 84.203 50.5092 84.703C50.5092 85.203 50.1092 85.603 49.6092 85.603C49.1092 85.603 48.7092 85.203 48.7092 84.703C48.7092 84.203 49.1092 83.803 49.6092 83.803Z" fill="white"/>
<path d="M49.6092 75.5029C50.1092 75.5029 50.5092 75.9029 50.5092 76.4029C50.5092 76.9029 50.1092 77.3029 49.6092 77.3029C49.1092 77.3029 48.7092 76.9029 48.7092 76.4029C48.7092 75.9029 49.1092 75.5029 49.6092 75.5029Z" fill="white"/>
<path d="M49.6092 67.103C50.1092 67.103 50.5092 67.503 50.5092 68.003C50.5092 68.503 50.1092 68.903 49.6092 68.903C49.1092 68.903 48.7092 68.503 48.7092 68.003C48.7092 67.503 49.1092 67.103 49.6092 67.103Z" fill="white"/>
<path d="M49.6092 58.803C50.1092 58.803 50.5092 59.203 50.5092 59.703C50.5092 60.203 50.1092 60.603 49.6092 60.603C49.1092 60.603 48.7092 60.203 48.7092 59.703C48.7092 59.203 49.1092 58.803 49.6092 58.803Z" fill="white"/>
<path d="M49.6092 50.4031C50.1092 50.4031 50.5092 50.8031 50.5092 51.3031C50.5092 51.8031 50.1092 52.2031 49.6092 52.2031C49.1092 52.2031 48.7092 51.8031 48.7092 51.3031C48.7092 50.8031 49.1092 50.4031 49.6092 50.4031Z" fill="white"/>
<path d="M49.6092 42.103C50.1092 42.103 50.5092 42.503 50.5092 43.003C50.5092 43.503 50.1092 43.903 49.6092 43.903C49.1092 43.903 48.7092 43.503 48.7092 43.003C48.7092 42.503 49.1092 42.103 49.6092 42.103Z" fill="white"/>
<path d="M49.6092 33.7029C50.1092 33.7029 50.5092 34.1029 50.5092 34.6029C50.5092 35.1029 50.1092 35.5029 49.6092 35.5029C49.1092 35.5029 48.7092 35.1029 48.7092 34.6029C48.7092 34.1029 49.1092 33.7029 49.6092 33.7029Z" fill="white"/>
<path d="M49.6092 25.4031C50.1092 25.4031 50.5092 25.8031 50.5092 26.3031C50.5092 26.8031 50.1092 27.2031 49.6092 27.2031C49.1092 27.2031 48.7092 26.8031 48.7092 26.3031C48.7092 25.8031 49.1092 25.4031 49.6092 25.4031Z" fill="white"/>
<path d="M49.6092 17.0029C50.1092 17.0029 50.5092 17.4029 50.5092 17.9029C50.5092 18.4029 50.1092 18.8029 49.6092 18.8029C49.1092 18.8029 48.7092 18.4029 48.7092 17.9029C48.7092 17.4029 49.1092 17.0029 49.6092 17.0029Z" fill="white"/>
<path d="M49.6092 8.70288C50.1092 8.70288 50.5092 9.10287 50.5092 9.60287C50.5092 10.1029 50.1092 10.5029 49.6092 10.5029C49.1092 10.5029 48.7092 10.1029 48.7092 9.60287C48.7092 9.10287 49.1092 8.70288 49.6092 8.70288Z" fill="white"/>
<path d="M49.6092 0.302978C50.1092 0.302978 50.5092 0.702972 50.5092 1.20297C50.5092 1.70297 50.1092 2.10297 49.6092 2.10297C49.1092 2.10297 48.7092 1.70297 48.7092 1.20297C48.7092 0.702972 49.1092 0.302978 49.6092 0.302978Z" fill="white"/>
<path d="M56.4092 108.903C56.9092 108.903 57.3092 109.303 57.3092 109.803C57.3092 110.303 56.9092 110.703 56.4092 110.703C55.9092 110.703 55.5092 110.303 55.5092 109.803C55.6092 109.303 56.0092 108.903 56.4092 108.903Z" fill="white"/>
<path d="M56.4092 100.503C56.9092 100.503 57.3092 100.903 57.3092 101.403C57.3092 101.903 56.9092 102.303 56.4092 102.303C55.9092 102.303 55.5092 101.903 55.5092 101.403C55.6092 100.903 56.0092 100.503 56.4092 100.503Z" fill="white"/>
<path d="M56.4092 92.2029C56.9092 92.2029 57.3092 92.6029 57.3092 93.1029C57.3092 93.6029 56.9092 94.0029 56.4092 94.0029C55.9092 94.0029 55.5092 93.6029 55.5092 93.1029C55.6092 92.6029 56.0092 92.2029 56.4092 92.2029Z" fill="white"/>
<path d="M56.4092 83.803C56.9092 83.803 57.3092 84.203 57.3092 84.703C57.3092 85.203 56.9092 85.603 56.4092 85.603C55.9092 85.603 55.5092 85.203 55.5092 84.703C55.6092 84.203 56.0092 83.803 56.4092 83.803Z" fill="white"/>
<path d="M56.4092 75.5029C56.9092 75.5029 57.3092 75.9029 57.3092 76.4029C57.3092 76.9029 56.9092 77.3029 56.4092 77.3029C55.9092 77.3029 55.5092 76.9029 55.5092 76.4029C55.6092 75.9029 56.0092 75.5029 56.4092 75.5029Z" fill="white"/>
<path d="M56.4092 67.103C56.9092 67.103 57.3092 67.503 57.3092 68.003C57.3092 68.503 56.9092 68.903 56.4092 68.903C55.9092 68.903 55.5092 68.503 55.5092 68.003C55.6092 67.503 56.0092 67.103 56.4092 67.103Z" fill="white"/>
<path d="M56.4092 58.803C56.9092 58.803 57.3092 59.203 57.3092 59.703C57.3092 60.203 56.9092 60.603 56.4092 60.603C55.9092 60.603 55.5092 60.203 55.5092 59.703C55.6092 59.203 56.0092 58.803 56.4092 58.803Z" fill="white"/>
<path d="M56.4092 50.4031C56.9092 50.4031 57.3092 50.8031 57.3092 51.3031C57.3092 51.8031 56.9092 52.2031 56.4092 52.2031C55.9092 52.2031 55.5092 51.8031 55.5092 51.3031C55.6092 50.8031 56.0092 50.4031 56.4092 50.4031Z" fill="white"/>
<path d="M56.4092 42.103C56.9092 42.103 57.3092 42.503 57.3092 43.003C57.3092 43.503 56.9092 43.903 56.4092 43.903C55.9092 43.903 55.5092 43.503 55.5092 43.003C55.6092 42.503 56.0092 42.103 56.4092 42.103Z" fill="white"/>
<path d="M56.4092 33.7029C56.9092 33.7029 57.3092 34.1029 57.3092 34.6029C57.3092 35.1029 56.9092 35.5029 56.4092 35.5029C55.9092 35.5029 55.5092 35.1029 55.5092 34.6029C55.6092 34.1029 56.0092 33.7029 56.4092 33.7029Z" fill="white"/>
<path d="M56.4092 25.4031C56.9092 25.4031 57.3092 25.8031 57.3092 26.3031C57.3092 26.8031 56.9092 27.2031 56.4092 27.2031C55.9092 27.2031 55.5092 26.8031 55.5092 26.3031C55.6092 25.8031 56.0092 25.4031 56.4092 25.4031Z" fill="white"/>
<path d="M56.4092 17.0029C56.9092 17.0029 57.3092 17.4029 57.3092 17.9029C57.3092 18.4029 56.9092 18.8029 56.4092 18.8029C55.9092 18.8029 55.5092 18.4029 55.5092 17.9029C55.6092 17.4029 56.0092 17.0029 56.4092 17.0029Z" fill="white"/>
<path d="M56.4092 8.70288C56.9092 8.70288 57.3092 9.10287 57.3092 9.60287C57.3092 10.1029 56.9092 10.5029 56.4092 10.5029C55.9092 10.5029 55.5092 10.1029 55.5092 9.60287C55.6092 9.10287 56.0092 8.70288 56.4092 8.70288Z" fill="white"/>
<path d="M56.4092 0.302978C56.9092 0.302978 57.3092 0.702972 57.3092 1.20297C57.3092 1.70297 56.9092 2.10297 56.4092 2.10297C55.9092 2.10297 55.5092 1.70297 55.5092 1.20297C55.6092 0.702972 56.0092 0.302978 56.4092 0.302978Z" fill="white"/>
</svg>
